<?xml version="1.0" encoding="UTF-8" standalone="no"?>
<!DOCTYPE svg PUBLIC "-//W3C//DTD SVG 1.0//EN" "http://www.w3.org/TR/2001/PR-SVG-20010719/DTD/svg10.dtd">
<svg width="13cm" height="7cm" viewBox="738 439 244 128" xmlns="http://www.w3.org/2000/svg" xmlns:xlink="http://www.w3.org/1999/xlink">
  <g>
    <line style="fill: none; fill-opacity:0; stroke-width: 2; stroke: #000000" x1="740" y1="480" x2="775.528" y2="480"/>
    <path style="fill: #000000" d="M 740 480 C 740,477.5 742.5,475 745,475 C 747.5,475 750,477.5 750,480 C 750,482.5 747.5,485 745,485 C 742.5,485 740,482.5 740,480z"/>
    <path style="fill: none; fill-opacity:0; stroke-width: 2; stroke: #000000" d="M 740 480 C 740,477.5 742.5,475 745,475 C 747.5,475 750,477.5 750,480 C 750,482.5 747.5,485 745,485 C 742.5,485 740,482.5 740,480"/>
    <polyline style="fill: none; fill-opacity:0; stroke-width: 2; stroke: #000000" points="767.764,485 777.764,480 767.764,475 "/>
  </g>
  <g>
    <line style="fill: none; fill-opacity:0; stroke-width: 2; stroke: #000000" x1="780" y1="460" x2="815.528" y2="460"/>
    <path style="fill: #000000" d="M 780 460 C 780,457.5 782.5,455 785,455 C 787.5,455 790,457.5 790,460 C 790,462.5 787.5,465 785,465 C 782.5,465 780,462.5 780,460z"/>
    <path style="fill: none; fill-opacity:0; stroke-width: 2; stroke: #000000" d="M 780 460 C 780,457.5 782.5,455 785,455 C 787.5,455 790,457.5 790,460 C 790,462.5 787.5,465 785,465 C 782.5,465 780,462.5 780,460"/>
    <polyline style="fill: none; fill-opacity:0; stroke-width: 2; stroke: #000000" points="807.764,465 817.764,460 807.764,455 "/>
  </g>
  <g>
    <line style="fill: none; fill-opacity:0; stroke-width: 2; stroke: #000000" x1="780" y1="520" x2="815.528" y2="520"/>
    <path style="fill: #000000" d="M 780 520 C 780,517.5 782.5,515 785,515 C 787.5,515 790,517.5 790,520 C 790,522.5 787.5,525 785,525 C 782.5,525 780,522.5 780,520z"/>
    <path style="fill: none; fill-opacity:0; stroke-width: 2; stroke: #000000" d="M 780 520 C 780,517.5 782.5,515 785,515 C 787.5,515 790,517.5 790,520 C 790,522.5 787.5,525 785,525 C 782.5,525 780,522.5 780,520"/>
    <polyline style="fill: none; fill-opacity:0; stroke-width: 2; stroke: #000000" points="807.764,525 817.764,520 807.764,515 "/>
  </g>
  <g>
    <line style="fill: none; fill-opacity:0; stroke-width: 2; stroke: #000000" x1="820" y1="460" x2="855.528" y2="460"/>
    <path style="fill: #000000" d="M 820 460 C 820,457.5 822.5,455 825,455 C 827.5,455 830,457.5 830,460 C 830,462.5 827.5,465 825,465 C 822.5,465 820,462.5 820,460z"/>
    <path style="fill: none; fill-opacity:0; stroke-width: 2; stroke: #000000" d="M 820 460 C 820,457.5 822.5,455 825,455 C 827.5,455 830,457.5 830,460 C 830,462.5 827.5,465 825,465 C 822.5,465 820,462.5 820,460"/>
    <polyline style="fill: none; fill-opacity:0; stroke-width: 2; stroke: #000000" points="847.764,465 857.764,460 847.764,455 "/>
  </g>
  <g>
    <line style="fill: none; fill-opacity:0; stroke-width: 2; stroke: #000000" x1="820" y1="540" x2="855.528" y2="540"/>
    <path style="fill: #000000" d="M 820 540 C 820,537.5 822.5,535 825,535 C 827.5,535 830,537.5 830,540 C 830,542.5 827.5,545 825,545 C 822.5,545 820,542.5 820,540z"/>
    <path style="fill: none; fill-opacity:0; stroke-width: 2; stroke: #000000" d="M 820 540 C 820,537.5 822.5,535 825,535 C 827.5,535 830,537.5 830,540 C 830,542.5 827.5,545 825,545 C 822.5,545 820,542.5 820,540"/>
    <polyline style="fill: none; fill-opacity:0; stroke-width: 2; stroke: #000000" points="847.764,545 857.764,540 847.764,535 "/>
  </g>
  <g>
    <line style="fill: none; fill-opacity:0; stroke-width: 2; stroke: #000000" x1="820" y1="500" x2="855.528" y2="500"/>
    <path style="fill: #000000" d="M 820 500 C 820,497.5 822.5,495 825,495 C 827.5,495 830,497.5 830,500 C 830,502.5 827.5,505 825,505 C 822.5,505 820,502.5 820,500z"/>
    <path style="fill: none; fill-opacity:0; stroke-width: 2; stroke: #000000" d="M 820 500 C 820,497.5 822.5,495 825,495 C 827.5,495 830,497.5 830,500 C 830,502.5 827.5,505 825,505 C 822.5,505 820,502.5 820,500"/>
    <polyline style="fill: none; fill-opacity:0; stroke-width: 2; stroke: #000000" points="847.764,505 857.764,500 847.764,495 "/>
  </g>
  <g>
    <line style="fill: none; fill-opacity:0; stroke-width: 2; stroke: #000000" x1="860" y1="540" x2="895.528" y2="540"/>
    <path style="fill: #000000" d="M 860 540 C 860,537.5 862.5,535 865,535 C 867.5,535 870,537.5 870,540 C 870,542.5 867.5,545 865,545 C 862.5,545 860,542.5 860,540z"/>
    <path style="fill: none; fill-opacity:0; stroke-width: 2; stroke: #000000" d="M 860 540 C 860,537.5 862.5,535 865,535 C 867.5,535 870,537.5 870,540 C 870,542.5 867.5,545 865,545 C 862.5,545 860,542.5 860,540"/>
    <polyline style="fill: none; fill-opacity:0; stroke-width: 2; stroke: #000000" points="887.764,545 897.764,540 887.764,535 "/>
  </g>
  <g>
    <line style="fill: none; fill-opacity:0; stroke-width: 2; stroke: #000000" x1="860" y1="480" x2="895.528" y2="480"/>
    <path style="fill: #000000" d="M 860 480 C 860,477.5 862.5,475 865,475 C 867.5,475 870,477.5 870,480 C 870,482.5 867.5,485 865,485 C 862.5,485 860,482.5 860,480z"/>
    <path style="fill: none; fill-opacity:0; stroke-width: 2; stroke: #000000" d="M 860 480 C 860,477.5 862.5,475 865,475 C 867.5,475 870,477.5 870,480 C 870,482.5 867.5,485 865,485 C 862.5,485 860,482.5 860,480"/>
    <polyline style="fill: none; fill-opacity:0; stroke-width: 2; stroke: #000000" points="887.764,485 897.764,480 887.764,475 "/>
  </g>
  <g>
    <line style="fill: none; fill-opacity:0; stroke-width: 2; stroke: #000000" x1="900" y1="480" x2="935.528" y2="480"/>
    <path style="fill: #000000" d="M 900 480 C 900,477.5 902.5,475 905,475 C 907.5,475 910,477.5 910,480 C 910,482.5 907.5,485 905,485 C 902.5,485 900,482.5 900,480z"/>
    <path style="fill: none; fill-opacity:0; stroke-width: 2; stroke: #000000" d="M 900 480 C 900,477.5 902.5,475 905,475 C 907.5,475 910,477.5 910,480 C 910,482.5 907.5,485 905,485 C 902.5,485 900,482.5 900,480"/>
    <polyline style="fill: none; fill-opacity:0; stroke-width: 2; stroke: #000000" points="927.764,485 937.764,480 927.764,475 "/>
  </g>
  <g>
    <line style="fill: none; fill-opacity:0; stroke-width: 2; stroke: #000000" x1="900" y1="560" x2="935.528" y2="560"/>
    <path style="fill: #000000" d="M 900 560 C 900,557.5 902.5,555 905,555 C 907.5,555 910,557.5 910,560 C 910,562.5 907.5,565 905,565 C 902.5,565 900,562.5 900,560z"/>
    <path style="fill: none; fill-opacity:0; stroke-width: 2; stroke: #000000" d="M 900 560 C 900,557.5 902.5,555 905,555 C 907.5,555 910,557.5 910,560 C 910,562.5 907.5,565 905,565 C 902.5,565 900,562.5 900,560"/>
    <polyline style="fill: none; fill-opacity:0; stroke-width: 2; stroke: #000000" points="927.764,565 937.764,560 927.764,555 "/>
  </g>
  <g>
    <line style="fill: none; fill-opacity:0; stroke-width: 2; stroke: #000000" x1="900" y1="520" x2="935.528" y2="520"/>
    <path style="fill: #000000" d="M 900 520 C 900,517.5 902.5,515 905,515 C 907.5,515 910,517.5 910,520 C 910,522.5 907.5,525 905,525 C 902.5,525 900,522.5 900,520z"/>
    <path style="fill: none; fill-opacity:0; stroke-width: 2; stroke: #000000" d="M 900 520 C 900,517.5 902.5,515 905,515 C 907.5,515 910,517.5 910,520 C 910,522.5 907.5,525 905,525 C 902.5,525 900,522.5 900,520"/>
    <polyline style="fill: none; fill-opacity:0; stroke-width: 2; stroke: #000000" points="927.764,525 937.764,520 927.764,515 "/>
  </g>
  <g>
    <line style="fill: none; fill-opacity:0; stroke-width: 2; stroke: #000000" x1="940" y1="460" x2="975.528" y2="460"/>
    <path style="fill: #000000" d="M 940 460 C 940,457.5 942.5,455 945,455 C 947.5,455 950,457.5 950,460 C 950,462.5 947.5,465 945,465 C 942.5,465 940,462.5 940,460z"/>
    <path style="fill: none; fill-opacity:0; stroke-width: 2; stroke: #000000" d="M 940 460 C 940,457.5 942.5,455 945,455 C 947.5,455 950,457.5 950,460 C 950,462.5 947.5,465 945,465 C 942.5,465 940,462.5 940,460"/>
    <polyline style="fill: none; fill-opacity:0; stroke-width: 2; stroke: #000000" points="967.764,465 977.764,460 967.764,455 "/>
  </g>
  <line style="fill: none; fill-opacity:0; stroke-width: 2; stroke: #000000" x1="780" y1="460" x2="780" y2="520"/>
  <line style="fill: none; fill-opacity:0; stroke-width: 2; stroke: #000000" x1="820" y1="500" x2="820" y2="540"/>
  <line style="fill: none; fill-opacity:0; stroke-width: 2; stroke: #000000" x1="860" y1="460" x2="860" y2="500"/>
  <line style="fill: none; fill-opacity:0; stroke-width: 2; stroke: #000000" x1="900" y1="520" x2="900" y2="560"/>
  <line style="fill: none; fill-opacity:0; stroke-width: 2; stroke: #000000" x1="940" y1="460" x2="940" y2="560"/>
  <text font-size="12.8" style="fill: #000000;text-anchor:start;font-family:sans-serif;font-style:normal;font-weight:normal" x="744" y="472">
    <tspan x="744" y="472">s0,t0</tspan>
  </text>
  <text font-size="12.8" style="fill: #000000;text-anchor:start;font-family:sans-serif;font-style:normal;font-weight:normal" x="784" y="452">
    <tspan x="784" y="452">s1,t1</tspan>
  </text>
  <text font-size="12.8" style="fill: #000000;text-anchor:start;font-family:sans-serif;font-style:normal;font-weight:normal" x="784" y="512">
    <tspan x="784" y="512">s2,t1</tspan>
  </text>
  <text font-size="12.8" style="fill: #000000;text-anchor:start;font-family:sans-serif;font-style:normal;font-weight:normal" x="824" y="492">
    <tspan x="824" y="492">s3,t2</tspan>
  </text>
  <text font-size="12.8" style="fill: #000000;text-anchor:start;font-family:sans-serif;font-style:normal;font-weight:normal" x="824" y="532">
    <tspan x="824" y="532">s4,t2</tspan>
  </text>
  <text font-size="12.8" style="fill: #000000;text-anchor:start;font-family:sans-serif;font-style:normal;font-weight:normal" x="864" y="472">
    <tspan x="864" y="472">s5,t3</tspan>
  </text>
  <text font-size="12.8" style="fill: #000000;text-anchor:start;font-family:sans-serif;font-style:normal;font-weight:normal" x="904" y="512">
    <tspan x="904" y="512">s6,t4</tspan>
  </text>
  <text font-size="12.8" style="fill: #000000;text-anchor:start;font-family:sans-serif;font-style:normal;font-weight:normal" x="904" y="552">
    <tspan x="904" y="552">s7,t4</tspan>
  </text>
  <text font-size="12.8" style="fill: #000000;text-anchor:start;font-family:sans-serif;font-style:normal;font-weight:normal" x="944" y="452">
    <tspan x="944" y="452">s8,t5</tspan>
  </text>
  <g>
    <line style="fill: none; fill-opacity:0; stroke-width: 2; stroke: #ff0000" x1="900" y1="480" x2="935.528" y2="480"/>
    <path style="fill: #ff0000" d="M 900 480 C 900,477.5 902.5,475 905,475 C 907.5,475 910,477.5 910,480 C 910,482.5 907.5,485 905,485 C 902.5,485 900,482.5 900,480z"/>
    <path style="fill: none; fill-opacity:0; stroke-width: 2; stroke: #ff0000" d="M 900 480 C 900,477.5 902.5,475 905,475 C 907.5,475 910,477.5 910,480 C 910,482.5 907.5,485 905,485 C 902.5,485 900,482.5 900,480"/>
    <polyline style="fill: none; fill-opacity:0; stroke-width: 2; stroke: #ff0000" points="927.764,485 937.764,480 927.764,475 "/>
  </g>
  <g>
    <line style="fill: none; fill-opacity:0; stroke-width: 2; stroke: #ff0000" x1="900" y1="560" x2="935.528" y2="560"/>
    <path style="fill: #ff0000" d="M 900 560 C 900,557.5 902.5,555 905,555 C 907.5,555 910,557.5 910,560 C 910,562.5 907.5,565 905,565 C 902.5,565 900,562.5 900,560z"/>
    <path style="fill: none; fill-opacity:0; stroke-width: 2; stroke: #ff0000" d="M 900 560 C 900,557.5 902.5,555 905,555 C 907.5,555 910,557.5 910,560 C 910,562.5 907.5,565 905,565 C 902.5,565 900,562.5 900,560"/>
    <polyline style="fill: none; fill-opacity:0; stroke-width: 2; stroke: #ff0000" points="927.764,565 937.764,560 927.764,555 "/>
  </g>
  <g>
    <line style="fill: none; fill-opacity:0; stroke-width: 2; stroke: #ff0000" x1="900" y1="520" x2="935.528" y2="520"/>
    <path style="fill: #ff0000" d="M 900 520 C 900,517.5 902.5,515 905,515 C 907.5,515 910,517.5 910,520 C 910,522.5 907.5,525 905,525 C 902.5,525 900,522.5 900,520z"/>
    <path style="fill: none; fill-opacity:0; stroke-width: 2; stroke: #ff0000" d="M 900 520 C 900,517.5 902.5,515 905,515 C 907.5,515 910,517.5 910,520 C 910,522.5 907.5,525 905,525 C 902.5,525 900,522.5 900,520"/>
    <polyline style="fill: none; fill-opacity:0; stroke-width: 2; stroke: #ff0000" points="927.764,525 937.764,520 927.764,515 "/>
  </g>
  <g>
    <line style="fill: none; fill-opacity:0; stroke-width: 2; stroke: #ff0000" x1="940" y1="460" x2="975.528" y2="460"/>
    <path style="fill: #ff0000" d="M 940 460 C 940,457.5 942.5,455 945,455 C 947.5,455 950,457.5 950,460 C 950,462.5 947.5,465 945,465 C 942.5,465 940,462.5 940,460z"/>
    <path style="fill: none; fill-opacity:0; stroke-width: 2; stroke: #ff0000" d="M 940 460 C 940,457.5 942.5,455 945,455 C 947.5,455 950,457.5 950,460 C 950,462.5 947.5,465 945,465 C 942.5,465 940,462.5 940,460"/>
    <polyline style="fill: none; fill-opacity:0; stroke-width: 2; stroke: #ff0000" points="967.764,465 977.764,460 967.764,455 "/>
  </g>
  <line style="fill: none; fill-opacity:0; stroke-width: 2; stroke: #ff0000" x1="940" y1="460" x2="940" y2="560"/>
  <g>
    <line style="fill: none; fill-opacity:0; stroke-width: 2; stroke: #0000ff" x1="780" y1="460" x2="815.528" y2="460"/>
    <path style="fill: #0000ff" d="M 780 460 C 780,457.5 782.5,455 785,455 C 787.5,455 790,457.5 790,460 C 790,462.5 787.5,465 785,465 C 782.5,465 780,462.5 780,460z"/>
    <path style="fill: none; fill-opacity:0; stroke-width: 2; stroke: #0000ff" d="M 780 460 C 780,457.5 782.5,455 785,455 C 787.5,455 790,457.5 790,460 C 790,462.5 787.5,465 785,465 C 782.5,465 780,462.5 780,460"/>
    <polyline style="fill: none; fill-opacity:0; stroke-width: 2; stroke: #0000ff" points="807.764,465 817.764,460 807.764,455 "/>
  </g>
  <g>
    <line style="fill: none; fill-opacity:0; stroke-width: 2; stroke: #0000ff" x1="780" y1="520" x2="815.528" y2="520"/>
    <path style="fill: #0000ff" d="M 780 520 C 780,517.5 782.5,515 785,515 C 787.5,515 790,517.5 790,520 C 790,522.5 787.5,525 785,525 C 782.5,525 780,522.5 780,520z"/>
    <path style="fill: none; fill-opacity:0; stroke-width: 2; stroke: #0000ff" d="M 780 520 C 780,517.5 782.5,515 785,515 C 787.5,515 790,517.5 790,520 C 790,522.5 787.5,525 785,525 C 782.5,525 780,522.5 780,520"/>
    <polyline style="fill: none; fill-opacity:0; stroke-width: 2; stroke: #0000ff" points="807.764,525 817.764,520 807.764,515 "/>
  </g>
  <g>
    <line style="fill: none; fill-opacity:0; stroke-width: 2; stroke: #0000ff" x1="860" y1="540" x2="895.528" y2="540"/>
    <path style="fill: #0000ff" d="M 860 540 C 860,537.5 862.5,535 865,535 C 867.5,535 870,537.5 870,540 C 870,542.5 867.5,545 865,545 C 862.5,545 860,542.5 860,540z"/>
    <path style="fill: none; fill-opacity:0; stroke-width: 2; stroke: #0000ff" d="M 860 540 C 860,537.5 862.5,535 865,535 C 867.5,535 870,537.5 870,540 C 870,542.5 867.5,545 865,545 C 862.5,545 860,542.5 860,540"/>
    <polyline style="fill: none; fill-opacity:0; stroke-width: 2; stroke: #0000ff" points="887.764,545 897.764,540 887.764,535 "/>
  </g>
  <g>
    <line style="fill: none; fill-opacity:0; stroke-width: 2; stroke: #0000ff" x1="860" y1="480" x2="895.528" y2="480"/>
    <path style="fill: #0000ff" d="M 860 480 C 860,477.5 862.5,475 865,475 C 867.5,475 870,477.5 870,480 C 870,482.5 867.5,485 865,485 C 862.5,485 860,482.5 860,480z"/>
    <path style="fill: none; fill-opacity:0; stroke-width: 2; stroke: #0000ff" d="M 860 480 C 860,477.5 862.5,475 865,475 C 867.5,475 870,477.5 870,480 C 870,482.5 867.5,485 865,485 C 862.5,485 860,482.5 860,480"/>
    <polyline style="fill: none; fill-opacity:0; stroke-width: 2; stroke: #0000ff" points="887.764,485 897.764,480 887.764,475 "/>
  </g>
</svg>
