<?xml version="1.0" encoding="UTF-8" standalone="no"?>
<!DOCTYPE svg PUBLIC "-//W3C//DTD SVG 1.0//EN" "http://www.w3.org/TR/2001/PR-SVG-20010719/DTD/svg10.dtd">
<svg width="13cm" height="10cm" viewBox="738 187 244 200" xmlns="http://www.w3.org/2000/svg" xmlns:xlink="http://www.w3.org/1999/xlink">
  <g>
    <line style="fill: none; fill-opacity:0; stroke-width: 2; stroke: #000000" x1="740" y1="320" x2="775.528" y2="320"/>
    <path style="fill: #000000" d="M 740 320 C 740,317.5 742.5,315 745,315 C 747.5,315 750,317.5 750,320 C 750,322.5 747.5,325 745,325 C 742.5,325 740,322.5 740,320z"/>
    <path style="fill: none; fill-opacity:0; stroke-width: 2; stroke: #000000" d="M 740 320 C 740,317.5 742.5,315 745,315 C 747.5,315 750,317.5 750,320 C 750,322.5 747.5,325 745,325 C 742.5,325 740,322.5 740,320"/>
    <polyline style="fill: none; fill-opacity:0; stroke-width: 2; stroke: #000000" points="767.764,325 777.764,320 767.764,315 "/>
  </g>
  <g>
    <line style="fill: none; fill-opacity:0; stroke-width: 2; stroke: #000000" x1="780" y1="320" x2="815.528" y2="320"/>
    <path style="fill: #000000" d="M 780 320 C 780,317.5 782.5,315 785,315 C 787.5,315 790,317.5 790,320 C 790,322.5 787.5,325 785,325 C 782.5,325 780,322.5 780,320z"/>
    <path style="fill: none; fill-opacity:0; stroke-width: 2; stroke: #000000" d="M 780 320 C 780,317.5 782.5,315 785,315 C 787.5,315 790,317.5 790,320 C 790,322.5 787.5,325 785,325 C 782.5,325 780,322.5 780,320"/>
    <polyline style="fill: none; fill-opacity:0; stroke-width: 2; stroke: #000000" points="807.764,325 817.764,320 807.764,315 "/>
  </g>
  <g>
    <line style="fill: none; fill-opacity:0; stroke-width: 2; stroke: #000000" x1="820" y1="340" x2="855.528" y2="340"/>
    <path style="fill: #000000" d="M 820 340 C 820,337.5 822.5,335 825,335 C 827.5,335 830,337.5 830,340 C 830,342.5 827.5,345 825,345 C 822.5,345 820,342.5 820,340z"/>
    <path style="fill: none; fill-opacity:0; stroke-width: 2; stroke: #000000" d="M 820 340 C 820,337.5 822.5,335 825,335 C 827.5,335 830,337.5 830,340 C 830,342.5 827.5,345 825,345 C 822.5,345 820,342.5 820,340"/>
    <polyline style="fill: none; fill-opacity:0; stroke-width: 2; stroke: #000000" points="847.764,345 857.764,340 847.764,335 "/>
  </g>
  <g>
    <line style="fill: none; fill-opacity:0; stroke-width: 2; stroke: #000000" x1="860" y1="340" x2="895.528" y2="340"/>
    <path style="fill: #000000" d="M 860 340 C 860,337.5 862.5,335 865,335 C 867.5,335 870,337.5 870,340 C 870,342.5 867.5,345 865,345 C 862.5,345 860,342.5 860,340z"/>
    <path style="fill: none; fill-opacity:0; stroke-width: 2; stroke: #000000" d="M 860 340 C 860,337.5 862.5,335 865,335 C 867.5,335 870,337.5 870,340 C 870,342.5 867.5,345 865,345 C 862.5,345 860,342.5 860,340"/>
    <polyline style="fill: none; fill-opacity:0; stroke-width: 2; stroke: #000000" points="887.764,345 897.764,340 887.764,335 "/>
  </g>
  <g>
    <line style="fill: none; fill-opacity:0; stroke-width: 2; stroke: #000000" x1="820" y1="300" x2="855.528" y2="300"/>
    <path style="fill: #000000" d="M 820 300 C 820,297.5 822.5,295 825,295 C 827.5,295 830,297.5 830,300 C 830,302.5 827.5,305 825,305 C 822.5,305 820,302.5 820,300z"/>
    <path style="fill: none; fill-opacity:0; stroke-width: 2; stroke: #000000" d="M 820 300 C 820,297.5 822.5,295 825,295 C 827.5,295 830,297.5 830,300 C 830,302.5 827.5,305 825,305 C 822.5,305 820,302.5 820,300"/>
    <polyline style="fill: none; fill-opacity:0; stroke-width: 2; stroke: #000000" points="847.764,305 857.764,300 847.764,295 "/>
  </g>
  <g>
    <line style="fill: none; fill-opacity:0; stroke-width: 2; stroke: #000000" x1="860" y1="300" x2="895.528" y2="300"/>
    <path style="fill: #000000" d="M 860 300 C 860,297.5 862.5,295 865,295 C 867.5,295 870,297.5 870,300 C 870,302.5 867.5,305 865,305 C 862.5,305 860,302.5 860,300z"/>
    <path style="fill: none; fill-opacity:0; stroke-width: 2; stroke: #000000" d="M 860 300 C 860,297.5 862.5,295 865,295 C 867.5,295 870,297.5 870,300 C 870,302.5 867.5,305 865,305 C 862.5,305 860,302.5 860,300"/>
    <polyline style="fill: none; fill-opacity:0; stroke-width: 2; stroke: #000000" points="887.764,305 897.764,300 887.764,295 "/>
  </g>
  <g>
    <line style="fill: none; fill-opacity:0; stroke-width: 2; stroke: #000000" x1="820" y1="260" x2="855.528" y2="260"/>
    <path style="fill: #000000" d="M 820 260 C 820,257.5 822.5,255 825,255 C 827.5,255 830,257.5 830,260 C 830,262.5 827.5,265 825,265 C 822.5,265 820,262.5 820,260z"/>
    <path style="fill: none; fill-opacity:0; stroke-width: 2; stroke: #000000" d="M 820 260 C 820,257.5 822.5,255 825,255 C 827.5,255 830,257.5 830,260 C 830,262.5 827.5,265 825,265 C 822.5,265 820,262.5 820,260"/>
    <polyline style="fill: none; fill-opacity:0; stroke-width: 2; stroke: #000000" points="847.764,265 857.764,260 847.764,255 "/>
  </g>
  <g>
    <line style="fill: none; fill-opacity:0; stroke-width: 2; stroke: #000000" x1="860" y1="260" x2="895.528" y2="260"/>
    <path style="fill: #000000" d="M 860 260 C 860,257.5 862.5,255 865,255 C 867.5,255 870,257.5 870,260 C 870,262.5 867.5,265 865,265 C 862.5,265 860,262.5 860,260z"/>
    <path style="fill: none; fill-opacity:0; stroke-width: 2; stroke: #000000" d="M 860 260 C 860,257.5 862.5,255 865,255 C 867.5,255 870,257.5 870,260 C 870,262.5 867.5,265 865,265 C 862.5,265 860,262.5 860,260"/>
    <polyline style="fill: none; fill-opacity:0; stroke-width: 2; stroke: #000000" points="887.764,265 897.764,260 887.764,255 "/>
  </g>
  <g>
    <line style="fill: none; fill-opacity:0; stroke-width: 2; stroke: #000000" x1="900" y1="320" x2="935.528" y2="320"/>
    <path style="fill: #000000" d="M 900 320 C 900,317.5 902.5,315 905,315 C 907.5,315 910,317.5 910,320 C 910,322.5 907.5,325 905,325 C 902.5,325 900,322.5 900,320z"/>
    <path style="fill: none; fill-opacity:0; stroke-width: 2; stroke: #000000" d="M 900 320 C 900,317.5 902.5,315 905,315 C 907.5,315 910,317.5 910,320 C 910,322.5 907.5,325 905,325 C 902.5,325 900,322.5 900,320"/>
    <polyline style="fill: none; fill-opacity:0; stroke-width: 2; stroke: #000000" points="927.764,325 937.764,320 927.764,315 "/>
  </g>
  <g>
    <line style="fill: none; fill-opacity:0; stroke-width: 2; stroke: #000000" x1="940" y1="320" x2="975.528" y2="320"/>
    <path style="fill: #000000" d="M 940 320 C 940,317.5 942.5,315 945,315 C 947.5,315 950,317.5 950,320 C 950,322.5 947.5,325 945,325 C 942.5,325 940,322.5 940,320z"/>
    <path style="fill: none; fill-opacity:0; stroke-width: 2; stroke: #000000" d="M 940 320 C 940,317.5 942.5,315 945,315 C 947.5,315 950,317.5 950,320 C 950,322.5 947.5,325 945,325 C 942.5,325 940,322.5 940,320"/>
    <polyline style="fill: none; fill-opacity:0; stroke-width: 2; stroke: #000000" points="967.764,325 977.764,320 967.764,315 "/>
  </g>
  <g>
    <line style="fill: none; fill-opacity:0; stroke-width: 2; stroke: #000000" x1="820" y1="380" x2="855.528" y2="380"/>
    <path style="fill: #000000" d="M 820 380 C 820,377.5 822.5,375 825,375 C 827.5,375 830,377.5 830,380 C 830,382.5 827.5,385 825,385 C 822.5,385 820,382.5 820,380z"/>
    <path style="fill: none; fill-opacity:0; stroke-width: 2; stroke: #000000" d="M 820 380 C 820,377.5 822.5,375 825,375 C 827.5,375 830,377.5 830,380 C 830,382.5 827.5,385 825,385 C 822.5,385 820,382.5 820,380"/>
    <polyline style="fill: none; fill-opacity:0; stroke-width: 2; stroke: #000000" points="847.764,385 857.764,380 847.764,375 "/>
  </g>
  <g>
    <line style="fill: none; fill-opacity:0; stroke-width: 2; stroke: #000000" x1="860" y1="380" x2="895.528" y2="380"/>
    <path style="fill: #000000" d="M 860 380 C 860,377.5 862.5,375 865,375 C 867.5,375 870,377.5 870,380 C 870,382.5 867.5,385 865,385 C 862.5,385 860,382.5 860,380z"/>
    <path style="fill: none; fill-opacity:0; stroke-width: 2; stroke: #000000" d="M 860 380 C 860,377.5 862.5,375 865,375 C 867.5,375 870,377.5 870,380 C 870,382.5 867.5,385 865,385 C 862.5,385 860,382.5 860,380"/>
    <polyline style="fill: none; fill-opacity:0; stroke-width: 2; stroke: #000000" points="887.764,385 897.764,380 887.764,375 "/>
  </g>
  <line style="fill: none; fill-opacity:0; stroke-width: 2; stroke: #000000" x1="820" y1="260" x2="820" y2="380"/>
  <line style="fill: none; fill-opacity:0; stroke-width: 2; stroke: #000000" x1="900" y1="260" x2="900" y2="380"/>
  <g>
    <line style="fill: none; fill-opacity:0; stroke-width: 2; stroke: #0000ff" x1="820" y1="340" x2="855.528" y2="340"/>
    <path style="fill: #0000ff" d="M 820 340 C 820,337.5 822.5,335 825,335 C 827.5,335 830,337.5 830,340 C 830,342.5 827.5,345 825,345 C 822.5,345 820,342.5 820,340z"/>
    <path style="fill: none; fill-opacity:0; stroke-width: 2; stroke: #0000ff" d="M 820 340 C 820,337.5 822.5,335 825,335 C 827.5,335 830,337.5 830,340 C 830,342.5 827.5,345 825,345 C 822.5,345 820,342.5 820,340"/>
    <polyline style="fill: none; fill-opacity:0; stroke-width: 2; stroke: #0000ff" points="847.764,345 857.764,340 847.764,335 "/>
  </g>
  <g>
    <line style="fill: none; fill-opacity:0; stroke-width: 2; stroke: #0000ff" x1="860" y1="340" x2="895.528" y2="340"/>
    <path style="fill: #0000ff" d="M 860 340 C 860,337.5 862.5,335 865,335 C 867.5,335 870,337.5 870,340 C 870,342.5 867.5,345 865,345 C 862.5,345 860,342.5 860,340z"/>
    <path style="fill: none; fill-opacity:0; stroke-width: 2; stroke: #0000ff" d="M 860 340 C 860,337.5 862.5,335 865,335 C 867.5,335 870,337.5 870,340 C 870,342.5 867.5,345 865,345 C 862.5,345 860,342.5 860,340"/>
    <polyline style="fill: none; fill-opacity:0; stroke-width: 2; stroke: #0000ff" points="887.764,345 897.764,340 887.764,335 "/>
  </g>
  <g>
    <line style="fill: none; fill-opacity:0; stroke-width: 2; stroke: #00ff00" x1="820" y1="300" x2="855.528" y2="300"/>
    <path style="fill: #00ff00" d="M 820 300 C 820,297.5 822.5,295 825,295 C 827.5,295 830,297.5 830,300 C 830,302.5 827.5,305 825,305 C 822.5,305 820,302.5 820,300z"/>
    <path style="fill: none; fill-opacity:0; stroke-width: 2; stroke: #00ff00" d="M 820 300 C 820,297.5 822.5,295 825,295 C 827.5,295 830,297.5 830,300 C 830,302.5 827.5,305 825,305 C 822.5,305 820,302.5 820,300"/>
    <polyline style="fill: none; fill-opacity:0; stroke-width: 2; stroke: #00ff00" points="847.764,305 857.764,300 847.764,295 "/>
  </g>
  <g>
    <line style="fill: none; fill-opacity:0; stroke-width: 2; stroke: #00ff00" x1="860" y1="300" x2="895.528" y2="300"/>
    <path style="fill: #00ff00" d="M 860 300 C 860,297.5 862.5,295 865,295 C 867.5,295 870,297.5 870,300 C 870,302.5 867.5,305 865,305 C 862.5,305 860,302.5 860,300z"/>
    <path style="fill: none; fill-opacity:0; stroke-width: 2; stroke: #00ff00" d="M 860 300 C 860,297.5 862.5,295 865,295 C 867.5,295 870,297.5 870,300 C 870,302.5 867.5,305 865,305 C 862.5,305 860,302.5 860,300"/>
    <polyline style="fill: none; fill-opacity:0; stroke-width: 2; stroke: #00ff00" points="887.764,305 897.764,300 887.764,295 "/>
  </g>
  <g>
    <line style="fill: none; fill-opacity:0; stroke-width: 2; stroke: #ff0000" x1="820" y1="260" x2="855.528" y2="260"/>
    <path style="fill: #ff0000" d="M 820 260 C 820,257.5 822.5,255 825,255 C 827.5,255 830,257.5 830,260 C 830,262.5 827.5,265 825,265 C 822.5,265 820,262.5 820,260z"/>
    <path style="fill: none; fill-opacity:0; stroke-width: 2; stroke: #ff0000" d="M 820 260 C 820,257.5 822.5,255 825,255 C 827.5,255 830,257.5 830,260 C 830,262.5 827.5,265 825,265 C 822.5,265 820,262.5 820,260"/>
    <polyline style="fill: none; fill-opacity:0; stroke-width: 2; stroke: #ff0000" points="847.764,265 857.764,260 847.764,255 "/>
  </g>
  <g>
    <line style="fill: none; fill-opacity:0; stroke-width: 2; stroke: #ff0000" x1="860" y1="260" x2="895.528" y2="260"/>
    <path style="fill: #ff0000" d="M 860 260 C 860,257.5 862.5,255 865,255 C 867.5,255 870,257.5 870,260 C 870,262.5 867.5,265 865,265 C 862.5,265 860,262.5 860,260z"/>
    <path style="fill: none; fill-opacity:0; stroke-width: 2; stroke: #ff0000" d="M 860 260 C 860,257.5 862.5,255 865,255 C 867.5,255 870,257.5 870,260 C 870,262.5 867.5,265 865,265 C 862.5,265 860,262.5 860,260"/>
    <polyline style="fill: none; fill-opacity:0; stroke-width: 2; stroke: #ff0000" points="887.764,265 897.764,260 887.764,255 "/>
  </g>
  <g>
    <line style="fill: none; fill-opacity:0; stroke-width: 2; stroke: #ff0000" x1="900" y1="320" x2="935.528" y2="320"/>
    <path style="fill: #ff0000" d="M 900 320 C 900,317.5 902.5,315 905,315 C 907.5,315 910,317.5 910,320 C 910,322.5 907.5,325 905,325 C 902.5,325 900,322.5 900,320z"/>
    <path style="fill: none; fill-opacity:0; stroke-width: 2; stroke: #ff0000" d="M 900 320 C 900,317.5 902.5,315 905,315 C 907.5,315 910,317.5 910,320 C 910,322.5 907.5,325 905,325 C 902.5,325 900,322.5 900,320"/>
    <polyline style="fill: none; fill-opacity:0; stroke-width: 2; stroke: #ff0000" points="927.764,325 937.764,320 927.764,315 "/>
  </g>
  <g>
    <line style="fill: none; fill-opacity:0; stroke-width: 2; stroke: #ffa500" x1="820" y1="380" x2="855.528" y2="380"/>
    <path style="fill: #ffa500" d="M 820 380 C 820,377.5 822.5,375 825,375 C 827.5,375 830,377.5 830,380 C 830,382.5 827.5,385 825,385 C 822.5,385 820,382.5 820,380z"/>
    <path style="fill: none; fill-opacity:0; stroke-width: 2; stroke: #ffa500" d="M 820 380 C 820,377.5 822.5,375 825,375 C 827.5,375 830,377.5 830,380 C 830,382.5 827.5,385 825,385 C 822.5,385 820,382.5 820,380"/>
    <polyline style="fill: none; fill-opacity:0; stroke-width: 2; stroke: #ffa500" points="847.764,385 857.764,380 847.764,375 "/>
  </g>
  <g>
    <line style="fill: none; fill-opacity:0; stroke-width: 2; stroke: #ffa500" x1="860" y1="380" x2="895.528" y2="380"/>
    <path style="fill: #ffa500" d="M 860 380 C 860,377.5 862.5,375 865,375 C 867.5,375 870,377.5 870,380 C 870,382.5 867.5,385 865,385 C 862.5,385 860,382.5 860,380z"/>
    <path style="fill: none; fill-opacity:0; stroke-width: 2; stroke: #ffa500" d="M 860 380 C 860,377.5 862.5,375 865,375 C 867.5,375 870,377.5 870,380 C 870,382.5 867.5,385 865,385 C 862.5,385 860,382.5 860,380"/>
    <polyline style="fill: none; fill-opacity:0; stroke-width: 2; stroke: #ffa500" points="887.764,385 897.764,380 887.764,375 "/>
  </g>
  <line style="fill: none; fill-opacity:0; stroke-width: 2; stroke: #ff0000" x1="900" y1="260" x2="900" y2="300"/>
  <line style="fill: none; fill-opacity:0; stroke-width: 2; stroke: #00ff00" x1="900" y1="300" x2="900" y2="320"/>
  <line style="fill: none; fill-opacity:0; stroke-width: 2; stroke: #0000ff" x1="900" y1="320" x2="900" y2="340"/>
  <line style="fill: none; fill-opacity:0; stroke-width: 2; stroke: #ffa500" x1="900" y1="340" x2="900" y2="380"/>
  <text font-size="12.8" style="fill: #000000;text-anchor:start;font-family:sans-serif;font-style:normal;font-weight:normal" x="744" y="312">
    <tspan x="744" y="312">s0,t0</tspan>
  </text>
  <text font-size="12.8" style="fill: #000000;text-anchor:start;font-family:sans-serif;font-style:normal;font-weight:normal" x="824" y="252">
    <tspan x="824" y="252">s1,t2</tspan>
  </text>
  <text font-size="12.8" style="fill: #000000;text-anchor:start;font-family:sans-serif;font-style:normal;font-weight:normal" x="824" y="292">
    <tspan x="824" y="292">s2,t2</tspan>
  </text>
  <text font-size="12.8" style="fill: #000000;text-anchor:start;font-family:sans-serif;font-style:normal;font-weight:normal" x="824" y="332">
    <tspan x="824" y="332">s3,t2</tspan>
  </text>
  <text font-size="12.8" style="fill: #000000;text-anchor:start;font-family:sans-serif;font-style:normal;font-weight:normal" x="824" y="372">
    <tspan x="824" y="372">s4,t2</tspan>
  </text>
  <text font-size="12.8" style="fill: #ff0000;text-anchor:start;font-family:sans-serif;font-style:normal;font-weight:normal" x="904" y="312">
    <tspan x="904" y="312">s5,t4</tspan>
  </text>
  <text font-size="12.8" style="fill: #ff0000;text-anchor:start;font-family:sans-serif;font-style:normal;font-weight:normal" x="740" y="200">
    <tspan x="740" y="200">4 Constraints with -1:-1:-2 time delays</tspan>
    <tspan x="740" y="216">generated at (s5,t4)</tspan>
  </text>
</svg>
