<?xml version="1.0" encoding="UTF-8" standalone="no"?>
<!DOCTYPE svg PUBLIC "-//W3C//DTD SVG 1.0//EN" "http://www.w3.org/TR/2001/PR-SVG-20010719/DTD/svg10.dtd">
<svg width="17cm" height="14cm" viewBox="738 439 324 268" xmlns="http://www.w3.org/2000/svg" xmlns:xlink="http://www.w3.org/1999/xlink">
  <g>
    <line style="fill: none; fill-opacity:0; stroke-width: 2; stroke: #000000" x1="740" y1="480" x2="775.528" y2="480"/>
    <path style="fill: #000000" d="M 740 480 C 740,477.5 742.5,475 745,475 C 747.5,475 750,477.5 750,480 C 750,482.5 747.5,485 745,485 C 742.5,485 740,482.5 740,480z"/>
    <path style="fill: none; fill-opacity:0; stroke-width: 2; stroke: #000000" d="M 740 480 C 740,477.5 742.5,475 745,475 C 747.5,475 750,477.5 750,480 C 750,482.5 747.5,485 745,485 C 742.5,485 740,482.5 740,480"/>
    <polyline style="fill: none; fill-opacity:0; stroke-width: 2; stroke: #000000" points="767.764,485 777.764,480 767.764,475 "/>
  </g>
  <g>
    <line style="fill: none; fill-opacity:0; stroke-width: 2; stroke: #000000" x1="780" y1="460" x2="815.528" y2="460"/>
    <path style="fill: #000000" d="M 780 460 C 780,457.5 782.5,455 785,455 C 787.5,455 790,457.5 790,460 C 790,462.5 787.5,465 785,465 C 782.5,465 780,462.5 780,460z"/>
    <path style="fill: none; fill-opacity:0; stroke-width: 2; stroke: #000000" d="M 780 460 C 780,457.5 782.5,455 785,455 C 787.5,455 790,457.5 790,460 C 790,462.5 787.5,465 785,465 C 782.5,465 780,462.5 780,460"/>
    <polyline style="fill: none; fill-opacity:0; stroke-width: 2; stroke: #000000" points="807.764,465 817.764,460 807.764,455 "/>
  </g>
  <g>
    <line style="fill: none; fill-opacity:0; stroke-width: 2; stroke: #000000" x1="780" y1="520" x2="815.528" y2="520"/>
    <path style="fill: #000000" d="M 780 520 C 780,517.5 782.5,515 785,515 C 787.5,515 790,517.5 790,520 C 790,522.5 787.5,525 785,525 C 782.5,525 780,522.5 780,520z"/>
    <path style="fill: none; fill-opacity:0; stroke-width: 2; stroke: #000000" d="M 780 520 C 780,517.5 782.5,515 785,515 C 787.5,515 790,517.5 790,520 C 790,522.5 787.5,525 785,525 C 782.5,525 780,522.5 780,520"/>
    <polyline style="fill: none; fill-opacity:0; stroke-width: 2; stroke: #000000" points="807.764,525 817.764,520 807.764,515 "/>
  </g>
  <g>
    <line style="fill: none; fill-opacity:0; stroke-width: 2; stroke: #000000" x1="820" y1="460" x2="855.528" y2="460"/>
    <path style="fill: #000000" d="M 820 460 C 820,457.5 822.5,455 825,455 C 827.5,455 830,457.5 830,460 C 830,462.5 827.5,465 825,465 C 822.5,465 820,462.5 820,460z"/>
    <path style="fill: none; fill-opacity:0; stroke-width: 2; stroke: #000000" d="M 820 460 C 820,457.5 822.5,455 825,455 C 827.5,455 830,457.5 830,460 C 830,462.5 827.5,465 825,465 C 822.5,465 820,462.5 820,460"/>
    <polyline style="fill: none; fill-opacity:0; stroke-width: 2; stroke: #000000" points="847.764,465 857.764,460 847.764,455 "/>
  </g>
  <g>
    <line style="fill: none; fill-opacity:0; stroke-width: 2; stroke: #000000" x1="820" y1="540" x2="855.528" y2="540"/>
    <path style="fill: #000000" d="M 820 540 C 820,537.5 822.5,535 825,535 C 827.5,535 830,537.5 830,540 C 830,542.5 827.5,545 825,545 C 822.5,545 820,542.5 820,540z"/>
    <path style="fill: none; fill-opacity:0; stroke-width: 2; stroke: #000000" d="M 820 540 C 820,537.5 822.5,535 825,535 C 827.5,535 830,537.5 830,540 C 830,542.5 827.5,545 825,545 C 822.5,545 820,542.5 820,540"/>
    <polyline style="fill: none; fill-opacity:0; stroke-width: 2; stroke: #000000" points="847.764,545 857.764,540 847.764,535 "/>
  </g>
  <g>
    <line style="fill: none; fill-opacity:0; stroke-width: 2; stroke: #000000" x1="820" y1="500" x2="855.528" y2="500"/>
    <path style="fill: #000000" d="M 820 500 C 820,497.5 822.5,495 825,495 C 827.5,495 830,497.5 830,500 C 830,502.5 827.5,505 825,505 C 822.5,505 820,502.5 820,500z"/>
    <path style="fill: none; fill-opacity:0; stroke-width: 2; stroke: #000000" d="M 820 500 C 820,497.5 822.5,495 825,495 C 827.5,495 830,497.5 830,500 C 830,502.5 827.5,505 825,505 C 822.5,505 820,502.5 820,500"/>
    <polyline style="fill: none; fill-opacity:0; stroke-width: 2; stroke: #000000" points="847.764,505 857.764,500 847.764,495 "/>
  </g>
  <g>
    <line style="fill: none; fill-opacity:0; stroke-width: 2; stroke: #000000" x1="860" y1="540" x2="895.528" y2="540"/>
    <path style="fill: #000000" d="M 860 540 C 860,537.5 862.5,535 865,535 C 867.5,535 870,537.5 870,540 C 870,542.5 867.5,545 865,545 C 862.5,545 860,542.5 860,540z"/>
    <path style="fill: none; fill-opacity:0; stroke-width: 2; stroke: #000000" d="M 860 540 C 860,537.5 862.5,535 865,535 C 867.5,535 870,537.5 870,540 C 870,542.5 867.5,545 865,545 C 862.5,545 860,542.5 860,540"/>
    <polyline style="fill: none; fill-opacity:0; stroke-width: 2; stroke: #000000" points="887.764,545 897.764,540 887.764,535 "/>
  </g>
  <g>
    <line style="fill: none; fill-opacity:0; stroke-width: 2; stroke: #000000" x1="860" y1="480" x2="895.528" y2="480"/>
    <path style="fill: #000000" d="M 860 480 C 860,477.5 862.5,475 865,475 C 867.5,475 870,477.5 870,480 C 870,482.5 867.5,485 865,485 C 862.5,485 860,482.5 860,480z"/>
    <path style="fill: none; fill-opacity:0; stroke-width: 2; stroke: #000000" d="M 860 480 C 860,477.5 862.5,475 865,475 C 867.5,475 870,477.5 870,480 C 870,482.5 867.5,485 865,485 C 862.5,485 860,482.5 860,480"/>
    <polyline style="fill: none; fill-opacity:0; stroke-width: 2; stroke: #000000" points="887.764,485 897.764,480 887.764,475 "/>
  </g>
  <g>
    <line style="fill: none; fill-opacity:0; stroke-width: 2; stroke: #000000" x1="900" y1="480" x2="935.528" y2="480"/>
    <path style="fill: #000000" d="M 900 480 C 900,477.5 902.5,475 905,475 C 907.5,475 910,477.5 910,480 C 910,482.5 907.5,485 905,485 C 902.5,485 900,482.5 900,480z"/>
    <path style="fill: none; fill-opacity:0; stroke-width: 2; stroke: #000000" d="M 900 480 C 900,477.5 902.5,475 905,475 C 907.5,475 910,477.5 910,480 C 910,482.5 907.5,485 905,485 C 902.5,485 900,482.5 900,480"/>
    <polyline style="fill: none; fill-opacity:0; stroke-width: 2; stroke: #000000" points="927.764,485 937.764,480 927.764,475 "/>
  </g>
  <g>
    <line style="fill: none; fill-opacity:0; stroke-width: 2; stroke: #000000" x1="900" y1="560" x2="935.528" y2="560"/>
    <path style="fill: #000000" d="M 900 560 C 900,557.5 902.5,555 905,555 C 907.5,555 910,557.5 910,560 C 910,562.5 907.5,565 905,565 C 902.5,565 900,562.5 900,560z"/>
    <path style="fill: none; fill-opacity:0; stroke-width: 2; stroke: #000000" d="M 900 560 C 900,557.5 902.5,555 905,555 C 907.5,555 910,557.5 910,560 C 910,562.5 907.5,565 905,565 C 902.5,565 900,562.5 900,560"/>
    <polyline style="fill: none; fill-opacity:0; stroke-width: 2; stroke: #000000" points="927.764,565 937.764,560 927.764,555 "/>
  </g>
  <g>
    <line style="fill: none; fill-opacity:0; stroke-width: 2; stroke: #000000" x1="900" y1="520" x2="935.528" y2="520"/>
    <path style="fill: #000000" d="M 900 520 C 900,517.5 902.5,515 905,515 C 907.5,515 910,517.5 910,520 C 910,522.5 907.5,525 905,525 C 902.5,525 900,522.5 900,520z"/>
    <path style="fill: none; fill-opacity:0; stroke-width: 2; stroke: #000000" d="M 900 520 C 900,517.5 902.5,515 905,515 C 907.5,515 910,517.5 910,520 C 910,522.5 907.5,525 905,525 C 902.5,525 900,522.5 900,520"/>
    <polyline style="fill: none; fill-opacity:0; stroke-width: 2; stroke: #000000" points="927.764,525 937.764,520 927.764,515 "/>
  </g>
  <g>
    <line style="fill: none; fill-opacity:0; stroke-width: 2; stroke: #000000" x1="940" y1="460" x2="975.528" y2="460"/>
    <path style="fill: #000000" d="M 940 460 C 940,457.5 942.5,455 945,455 C 947.5,455 950,457.5 950,460 C 950,462.5 947.5,465 945,465 C 942.5,465 940,462.5 940,460z"/>
    <path style="fill: none; fill-opacity:0; stroke-width: 2; stroke: #000000" d="M 940 460 C 940,457.5 942.5,455 945,455 C 947.5,455 950,457.5 950,460 C 950,462.5 947.5,465 945,465 C 942.5,465 940,462.5 940,460"/>
    <polyline style="fill: none; fill-opacity:0; stroke-width: 2; stroke: #000000" points="967.764,465 977.764,460 967.764,455 "/>
  </g>
  <line style="fill: none; fill-opacity:0; stroke-width: 2; stroke: #000000" x1="780" y1="460" x2="780" y2="520"/>
  <line style="fill: none; fill-opacity:0; stroke-width: 2; stroke: #000000" x1="820" y1="500" x2="820" y2="540"/>
  <line style="fill: none; fill-opacity:0; stroke-width: 2; stroke: #000000" x1="860" y1="460" x2="860" y2="500"/>
  <line style="fill: none; fill-opacity:0; stroke-width: 2; stroke: #000000" x1="900" y1="520" x2="900" y2="560"/>
  <line style="fill: none; fill-opacity:0; stroke-width: 2; stroke: #000000" x1="940" y1="460" x2="940" y2="560"/>
  <g>
    <line style="fill: none; fill-opacity:0; stroke-width: 2; stroke: #000000" x1="820" y1="620" x2="855.528" y2="620"/>
    <path style="fill: #000000" d="M 820 620 C 820,617.5 822.5,615 825,615 C 827.5,615 830,617.5 830,620 C 830,622.5 827.5,625 825,625 C 822.5,625 820,622.5 820,620z"/>
    <path style="fill: none; fill-opacity:0; stroke-width: 2; stroke: #000000" d="M 820 620 C 820,617.5 822.5,615 825,615 C 827.5,615 830,617.5 830,620 C 830,622.5 827.5,625 825,625 C 822.5,625 820,622.5 820,620"/>
    <polyline style="fill: none; fill-opacity:0; stroke-width: 2; stroke: #000000" points="847.764,625 857.764,620 847.764,615 "/>
  </g>
  <g>
    <line style="fill: none; fill-opacity:0; stroke-width: 2; stroke: #000000" x1="860" y1="600" x2="895.528" y2="600"/>
    <path style="fill: #000000" d="M 860 600 C 860,597.5 862.5,595 865,595 C 867.5,595 870,597.5 870,600 C 870,602.5 867.5,605 865,605 C 862.5,605 860,602.5 860,600z"/>
    <path style="fill: none; fill-opacity:0; stroke-width: 2; stroke: #000000" d="M 860 600 C 860,597.5 862.5,595 865,595 C 867.5,595 870,597.5 870,600 C 870,602.5 867.5,605 865,605 C 862.5,605 860,602.5 860,600"/>
    <polyline style="fill: none; fill-opacity:0; stroke-width: 2; stroke: #000000" points="887.764,605 897.764,600 887.764,595 "/>
  </g>
  <g>
    <line style="fill: none; fill-opacity:0; stroke-width: 2; stroke: #000000" x1="860" y1="660" x2="895.528" y2="660"/>
    <path style="fill: #000000" d="M 860 660 C 860,657.5 862.5,655 865,655 C 867.5,655 870,657.5 870,660 C 870,662.5 867.5,665 865,665 C 862.5,665 860,662.5 860,660z"/>
    <path style="fill: none; fill-opacity:0; stroke-width: 2; stroke: #000000" d="M 860 660 C 860,657.5 862.5,655 865,655 C 867.5,655 870,657.5 870,660 C 870,662.5 867.5,665 865,665 C 862.5,665 860,662.5 860,660"/>
    <polyline style="fill: none; fill-opacity:0; stroke-width: 2; stroke: #000000" points="887.764,665 897.764,660 887.764,655 "/>
  </g>
  <g>
    <line style="fill: none; fill-opacity:0; stroke-width: 2; stroke: #000000" x1="900" y1="600" x2="935.528" y2="600"/>
    <path style="fill: #000000" d="M 900 600 C 900,597.5 902.5,595 905,595 C 907.5,595 910,597.5 910,600 C 910,602.5 907.5,605 905,605 C 902.5,605 900,602.5 900,600z"/>
    <path style="fill: none; fill-opacity:0; stroke-width: 2; stroke: #000000" d="M 900 600 C 900,597.5 902.5,595 905,595 C 907.5,595 910,597.5 910,600 C 910,602.5 907.5,605 905,605 C 902.5,605 900,602.5 900,600"/>
    <polyline style="fill: none; fill-opacity:0; stroke-width: 2; stroke: #000000" points="927.764,605 937.764,600 927.764,595 "/>
  </g>
  <g>
    <line style="fill: none; fill-opacity:0; stroke-width: 2; stroke: #000000" x1="900" y1="680" x2="935.528" y2="680"/>
    <path style="fill: #000000" d="M 900 680 C 900,677.5 902.5,675 905,675 C 907.5,675 910,677.5 910,680 C 910,682.5 907.5,685 905,685 C 902.5,685 900,682.5 900,680z"/>
    <path style="fill: none; fill-opacity:0; stroke-width: 2; stroke: #000000" d="M 900 680 C 900,677.5 902.5,675 905,675 C 907.5,675 910,677.5 910,680 C 910,682.5 907.5,685 905,685 C 902.5,685 900,682.5 900,680"/>
    <polyline style="fill: none; fill-opacity:0; stroke-width: 2; stroke: #000000" points="927.764,685 937.764,680 927.764,675 "/>
  </g>
  <g>
    <line style="fill: none; fill-opacity:0; stroke-width: 2; stroke: #000000" x1="900" y1="640" x2="935.528" y2="640"/>
    <path style="fill: #000000" d="M 900 640 C 900,637.5 902.5,635 905,635 C 907.5,635 910,637.5 910,640 C 910,642.5 907.5,645 905,645 C 902.5,645 900,642.5 900,640z"/>
    <path style="fill: none; fill-opacity:0; stroke-width: 2; stroke: #000000" d="M 900 640 C 900,637.5 902.5,635 905,635 C 907.5,635 910,637.5 910,640 C 910,642.5 907.5,645 905,645 C 902.5,645 900,642.5 900,640"/>
    <polyline style="fill: none; fill-opacity:0; stroke-width: 2; stroke: #000000" points="927.764,645 937.764,640 927.764,635 "/>
  </g>
  <g>
    <line style="fill: none; fill-opacity:0; stroke-width: 2; stroke: #000000" x1="940" y1="680" x2="975.528" y2="680"/>
    <path style="fill: #000000" d="M 940 680 C 940,677.5 942.5,675 945,675 C 947.5,675 950,677.5 950,680 C 950,682.5 947.5,685 945,685 C 942.5,685 940,682.5 940,680z"/>
    <path style="fill: none; fill-opacity:0; stroke-width: 2; stroke: #000000" d="M 940 680 C 940,677.5 942.5,675 945,675 C 947.5,675 950,677.5 950,680 C 950,682.5 947.5,685 945,685 C 942.5,685 940,682.5 940,680"/>
    <polyline style="fill: none; fill-opacity:0; stroke-width: 2; stroke: #000000" points="967.764,685 977.764,680 967.764,675 "/>
  </g>
  <g>
    <line style="fill: none; fill-opacity:0; stroke-width: 2; stroke: #000000" x1="940" y1="620" x2="975.528" y2="620"/>
    <path style="fill: #000000" d="M 940 620 C 940,617.5 942.5,615 945,615 C 947.5,615 950,617.5 950,620 C 950,622.5 947.5,625 945,625 C 942.5,625 940,622.5 940,620z"/>
    <path style="fill: none; fill-opacity:0; stroke-width: 2; stroke: #000000" d="M 940 620 C 940,617.5 942.5,615 945,615 C 947.5,615 950,617.5 950,620 C 950,622.5 947.5,625 945,625 C 942.5,625 940,622.5 940,620"/>
    <polyline style="fill: none; fill-opacity:0; stroke-width: 2; stroke: #000000" points="967.764,625 977.764,620 967.764,615 "/>
  </g>
  <g>
    <line style="fill: none; fill-opacity:0; stroke-width: 2; stroke: #000000" x1="980" y1="620" x2="1015.53" y2="620"/>
    <path style="fill: #000000" d="M 980 620 C 980,617.5 982.5,615 985,615 C 987.5,615 990,617.5 990,620 C 990,622.5 987.5,625 985,625 C 982.5,625 980,622.5 980,620z"/>
    <path style="fill: none; fill-opacity:0; stroke-width: 2; stroke: #000000" d="M 980 620 C 980,617.5 982.5,615 985,615 C 987.5,615 990,617.5 990,620 C 990,622.5 987.5,625 985,625 C 982.5,625 980,622.5 980,620"/>
    <polyline style="fill: none; fill-opacity:0; stroke-width: 2; stroke: #000000" points="1007.76,625 1017.76,620 1007.76,615 "/>
  </g>
  <g>
    <line style="fill: none; fill-opacity:0; stroke-width: 2; stroke: #000000" x1="980" y1="700" x2="1015.53" y2="700"/>
    <path style="fill: #000000" d="M 980 700 C 980,697.5 982.5,695 985,695 C 987.5,695 990,697.5 990,700 C 990,702.5 987.5,705 985,705 C 982.5,705 980,702.5 980,700z"/>
    <path style="fill: none; fill-opacity:0; stroke-width: 2; stroke: #000000" d="M 980 700 C 980,697.5 982.5,695 985,695 C 987.5,695 990,697.5 990,700 C 990,702.5 987.5,705 985,705 C 982.5,705 980,702.5 980,700"/>
    <polyline style="fill: none; fill-opacity:0; stroke-width: 2; stroke: #000000" points="1007.76,705 1017.76,700 1007.76,695 "/>
  </g>
  <g>
    <line style="fill: none; fill-opacity:0; stroke-width: 2; stroke: #000000" x1="980" y1="660" x2="1015.53" y2="660"/>
    <path style="fill: #000000" d="M 980 660 C 980,657.5 982.5,655 985,655 C 987.5,655 990,657.5 990,660 C 990,662.5 987.5,665 985,665 C 982.5,665 980,662.5 980,660z"/>
    <path style="fill: none; fill-opacity:0; stroke-width: 2; stroke: #000000" d="M 980 660 C 980,657.5 982.5,655 985,655 C 987.5,655 990,657.5 990,660 C 990,662.5 987.5,665 985,665 C 982.5,665 980,662.5 980,660"/>
    <polyline style="fill: none; fill-opacity:0; stroke-width: 2; stroke: #000000" points="1007.76,665 1017.76,660 1007.76,655 "/>
  </g>
  <g>
    <line style="fill: none; fill-opacity:0; stroke-width: 2; stroke: #000000" x1="1020" y1="600" x2="1055.53" y2="600"/>
    <path style="fill: #000000" d="M 1020 600 C 1020,597.5 1022.5,595 1025,595 C 1027.5,595 1030,597.5 1030,600 C 1030,602.5 1027.5,605 1025,605 C 1022.5,605 1020,602.5 1020,600z"/>
    <path style="fill: none; fill-opacity:0; stroke-width: 2; stroke: #000000" d="M 1020 600 C 1020,597.5 1022.5,595 1025,595 C 1027.5,595 1030,597.5 1030,600 C 1030,602.5 1027.5,605 1025,605 C 1022.5,605 1020,602.5 1020,600"/>
    <polyline style="fill: none; fill-opacity:0; stroke-width: 2; stroke: #000000" points="1047.76,605 1057.76,600 1047.76,595 "/>
  </g>
  <line style="fill: none; fill-opacity:0; stroke-width: 2; stroke: #000000" x1="860" y1="600" x2="860" y2="660"/>
  <line style="fill: none; fill-opacity:0; stroke-width: 2; stroke: #000000" x1="900" y1="640" x2="900" y2="680"/>
  <line style="fill: none; fill-opacity:0; stroke-width: 2; stroke: #000000" x1="940" y1="600" x2="940" y2="640"/>
  <line style="fill: none; fill-opacity:0; stroke-width: 2; stroke: #000000" x1="980" y1="660" x2="980" y2="700"/>
  <line style="fill: none; fill-opacity:0; stroke-width: 2; stroke: #000000" x1="1020" y1="600" x2="1020" y2="700"/>
  <g>
    <line style="fill: none; fill-opacity:0; stroke-width: 2; stroke: #000000" x1="780" y1="620" x2="815.528" y2="620"/>
    <path style="fill: #000000" d="M 780 620 C 780,617.5 782.5,615 785,615 C 787.5,615 790,617.5 790,620 C 790,622.5 787.5,625 785,625 C 782.5,625 780,622.5 780,620z"/>
    <path style="fill: none; fill-opacity:0; stroke-width: 2; stroke: #000000" d="M 780 620 C 780,617.5 782.5,615 785,615 C 787.5,615 790,617.5 790,620 C 790,622.5 787.5,625 785,625 C 782.5,625 780,622.5 780,620"/>
    <polyline style="fill: none; fill-opacity:0; stroke-width: 2; stroke: #000000" points="807.764,625 817.764,620 807.764,615 "/>
  </g>
  <g>
    <line style="fill: none; fill-opacity:0; stroke-width: 2; stroke: #000000" x1="740" y1="620" x2="775.528" y2="620"/>
    <path style="fill: #000000" d="M 740 620 C 740,617.5 742.5,615 745,615 C 747.5,615 750,617.5 750,620 C 750,622.5 747.5,625 745,625 C 742.5,625 740,622.5 740,620z"/>
    <path style="fill: none; fill-opacity:0; stroke-width: 2; stroke: #000000" d="M 740 620 C 740,617.5 742.5,615 745,615 C 747.5,615 750,617.5 750,620 C 750,622.5 747.5,625 745,625 C 742.5,625 740,622.5 740,620"/>
    <polyline style="fill: none; fill-opacity:0; stroke-width: 2; stroke: #000000" points="767.764,625 777.764,620 767.764,615 "/>
  </g>
  <g>
    <line style="fill: none; fill-opacity:0; stroke-width: 2; stroke: #000000" x1="980" y1="460" x2="1020" y2="460"/>
    <path style="fill: #000000" d="M 980 460 C 980,457.5 982.5,455 985,455 C 987.5,455 990,457.5 990,460 C 990,462.5 987.5,465 985,465 C 982.5,465 980,462.5 980,460z"/>
    <path style="fill: none; fill-opacity:0; stroke-width: 2; stroke: #000000" d="M 980 460 C 980,457.5 982.5,455 985,455 C 987.5,455 990,457.5 990,460 C 990,462.5 987.5,465 985,465 C 982.5,465 980,462.5 980,460"/>
  </g>
  <g>
    <line style="fill: none; fill-opacity:0; stroke-width: 2; stroke: #000000" x1="1020" y1="460" x2="1060" y2="460"/>
    <path style="fill: #000000" d="M 1020 460 C 1020,457.5 1022.5,455 1025,455 C 1027.5,455 1030,457.5 1030,460 C 1030,462.5 1027.5,465 1025,465 C 1022.5,465 1020,462.5 1020,460z"/>
    <path style="fill: none; fill-opacity:0; stroke-width: 2; stroke: #000000" d="M 1020 460 C 1020,457.5 1022.5,455 1025,455 C 1027.5,455 1030,457.5 1030,460 C 1030,462.5 1027.5,465 1025,465 C 1022.5,465 1020,462.5 1020,460"/>
  </g>
  <text font-size="12.8" style="fill: #000000;text-anchor:start;font-family:sans-serif;font-style:normal;font-weight:normal" x="744" y="472">
    <tspan x="744" y="472">s0,t0</tspan>
  </text>
  <text font-size="12.8" style="fill: #000000;text-anchor:start;font-family:sans-serif;font-style:normal;font-weight:normal" x="784" y="452">
    <tspan x="784" y="452">s1,t1</tspan>
  </text>
  <text font-size="12.8" style="fill: #000000;text-anchor:start;font-family:sans-serif;font-style:normal;font-weight:normal" x="784" y="512">
    <tspan x="784" y="512">s2,t1</tspan>
  </text>
  <text font-size="12.8" style="fill: #000000;text-anchor:start;font-family:sans-serif;font-style:normal;font-weight:normal" x="824" y="492">
    <tspan x="824" y="492">s3,t2</tspan>
  </text>
  <text font-size="12.8" style="fill: #000000;text-anchor:start;font-family:sans-serif;font-style:normal;font-weight:normal" x="824" y="532">
    <tspan x="824" y="532">s4,t2</tspan>
  </text>
  <text font-size="12.8" style="fill: #000000;text-anchor:start;font-family:sans-serif;font-style:normal;font-weight:normal" x="864" y="472">
    <tspan x="864" y="472">s5,t3</tspan>
  </text>
  <text font-size="12.8" style="fill: #000000;text-anchor:start;font-family:sans-serif;font-style:normal;font-weight:normal" x="904" y="512">
    <tspan x="904" y="512">s6,t4</tspan>
  </text>
  <text font-size="12.8" style="fill: #000000;text-anchor:start;font-family:sans-serif;font-style:normal;font-weight:normal" x="904" y="552">
    <tspan x="904" y="552">s7,t4</tspan>
  </text>
  <text font-size="12.8" style="fill: #000000;text-anchor:start;font-family:sans-serif;font-style:normal;font-weight:normal" x="944" y="452">
    <tspan x="944" y="452">s8,t5</tspan>
  </text>
  <text font-size="12.8" style="fill: #000000;text-anchor:start;font-family:sans-serif;font-style:normal;font-weight:normal" x="744" y="612">
    <tspan x="744" y="612">s0,t0</tspan>
  </text>
  <text font-size="12.8" style="fill: #000000;text-anchor:start;font-family:sans-serif;font-style:normal;font-weight:normal" x="864" y="592">
    <tspan x="864" y="592">s1,t3</tspan>
  </text>
  <text font-size="12.8" style="fill: #000000;text-anchor:start;font-family:sans-serif;font-style:normal;font-weight:normal" x="864" y="652">
    <tspan x="864" y="652">s2,t3</tspan>
  </text>
  <text font-size="12.8" style="fill: #000000;text-anchor:start;font-family:sans-serif;font-style:normal;font-weight:normal" x="904" y="632">
    <tspan x="904" y="632">s3,t4</tspan>
  </text>
  <text font-size="12.8" style="fill: #000000;text-anchor:start;font-family:sans-serif;font-style:normal;font-weight:normal" x="904" y="672">
    <tspan x="904" y="672">s4,t4</tspan>
  </text>
  <text font-size="12.8" style="fill: #000000;text-anchor:start;font-family:sans-serif;font-style:normal;font-weight:normal" x="944" y="612">
    <tspan x="944" y="612">s5,t5</tspan>
  </text>
  <text font-size="12.8" style="fill: #000000;text-anchor:start;font-family:sans-serif;font-style:normal;font-weight:normal" x="984" y="652">
    <tspan x="984" y="652">s6,t6</tspan>
  </text>
  <text font-size="12.8" style="fill: #000000;text-anchor:start;font-family:sans-serif;font-style:normal;font-weight:normal" x="984" y="692">
    <tspan x="984" y="692">s7,t6</tspan>
  </text>
  <text font-size="12.8" style="fill: #000000;text-anchor:start;font-family:sans-serif;font-style:normal;font-weight:normal" x="1024" y="592">
    <tspan x="1024" y="592">s8,t7</tspan>
  </text>
  <g>
    <line style="fill: none; fill-opacity:0; stroke-width: 2; stroke: #ff0000" x1="780" y1="460" x2="815.528" y2="460"/>
    <path style="fill: #ff0000" d="M 780 460 C 780,457.5 782.5,455 785,455 C 787.5,455 790,457.5 790,460 C 790,462.5 787.5,465 785,465 C 782.5,465 780,462.5 780,460z"/>
    <path style="fill: none; fill-opacity:0; stroke-width: 2; stroke: #ff0000" d="M 780 460 C 780,457.5 782.5,455 785,455 C 787.5,455 790,457.5 790,460 C 790,462.5 787.5,465 785,465 C 782.5,465 780,462.5 780,460"/>
    <polyline style="fill: none; fill-opacity:0; stroke-width: 2; stroke: #ff0000" points="807.764,465 817.764,460 807.764,455 "/>
  </g>
  <g>
    <line style="fill: none; fill-opacity:0; stroke-width: 2; stroke: #ff0000" x1="780" y1="520" x2="815.528" y2="520"/>
    <path style="fill: #ff0000" d="M 780 520 C 780,517.5 782.5,515 785,515 C 787.5,515 790,517.5 790,520 C 790,522.5 787.5,525 785,525 C 782.5,525 780,522.5 780,520z"/>
    <path style="fill: none; fill-opacity:0; stroke-width: 2; stroke: #ff0000" d="M 780 520 C 780,517.5 782.5,515 785,515 C 787.5,515 790,517.5 790,520 C 790,522.5 787.5,525 785,525 C 782.5,525 780,522.5 780,520"/>
    <polyline style="fill: none; fill-opacity:0; stroke-width: 2; stroke: #ff0000" points="807.764,525 817.764,520 807.764,515 "/>
  </g>
  <g>
    <line style="fill: none; fill-opacity:0; stroke-width: 2; stroke: #0000ff" x1="900" y1="480" x2="935.528" y2="480"/>
    <path style="fill: #0000ff" d="M 900 480 C 900,477.5 902.5,475 905,475 C 907.5,475 910,477.5 910,480 C 910,482.5 907.5,485 905,485 C 902.5,485 900,482.5 900,480z"/>
    <path style="fill: none; fill-opacity:0; stroke-width: 2; stroke: #0000ff" d="M 900 480 C 900,477.5 902.5,475 905,475 C 907.5,475 910,477.5 910,480 C 910,482.5 907.5,485 905,485 C 902.5,485 900,482.5 900,480"/>
    <polyline style="fill: none; fill-opacity:0; stroke-width: 2; stroke: #0000ff" points="927.764,485 937.764,480 927.764,475 "/>
  </g>
  <g>
    <line style="fill: none; fill-opacity:0; stroke-width: 2; stroke: #0000ff" x1="900" y1="560" x2="935.528" y2="560"/>
    <path style="fill: #0000ff" d="M 900 560 C 900,557.5 902.5,555 905,555 C 907.5,555 910,557.5 910,560 C 910,562.5 907.5,565 905,565 C 902.5,565 900,562.5 900,560z"/>
    <path style="fill: none; fill-opacity:0; stroke-width: 2; stroke: #0000ff" d="M 900 560 C 900,557.5 902.5,555 905,555 C 907.5,555 910,557.5 910,560 C 910,562.5 907.5,565 905,565 C 902.5,565 900,562.5 900,560"/>
    <polyline style="fill: none; fill-opacity:0; stroke-width: 2; stroke: #0000ff" points="927.764,565 937.764,560 927.764,555 "/>
  </g>
  <g>
    <line style="fill: none; fill-opacity:0; stroke-width: 2; stroke: #0000ff" x1="900" y1="520" x2="935.528" y2="520"/>
    <path style="fill: #0000ff" d="M 900 520 C 900,517.5 902.5,515 905,515 C 907.5,515 910,517.5 910,520 C 910,522.5 907.5,525 905,525 C 902.5,525 900,522.5 900,520z"/>
    <path style="fill: none; fill-opacity:0; stroke-width: 2; stroke: #0000ff" d="M 900 520 C 900,517.5 902.5,515 905,515 C 907.5,515 910,517.5 910,520 C 910,522.5 907.5,525 905,525 C 902.5,525 900,522.5 900,520"/>
    <polyline style="fill: none; fill-opacity:0; stroke-width: 2; stroke: #0000ff" points="927.764,525 937.764,520 927.764,515 "/>
  </g>
  <g>
    <line style="fill: none; fill-opacity:0; stroke-width: 2; stroke: #ff0000" x1="780" y1="620" x2="815.528" y2="620"/>
    <path style="fill: #ff0000" d="M 780 620 C 780,617.5 782.5,615 785,615 C 787.5,615 790,617.5 790,620 C 790,622.5 787.5,625 785,625 C 782.5,625 780,622.5 780,620z"/>
    <path style="fill: none; fill-opacity:0; stroke-width: 2; stroke: #ff0000" d="M 780 620 C 780,617.5 782.5,615 785,615 C 787.5,615 790,617.5 790,620 C 790,622.5 787.5,625 785,625 C 782.5,625 780,622.5 780,620"/>
    <polyline style="fill: none; fill-opacity:0; stroke-width: 2; stroke: #ff0000" points="807.764,625 817.764,620 807.764,615 "/>
  </g>
  <g>
    <line style="fill: none; fill-opacity:0; stroke-width: 2; stroke: #0000ff" x1="900" y1="600" x2="935.528" y2="600"/>
    <path style="fill: #0000ff" d="M 900 600 C 900,597.5 902.5,595 905,595 C 907.5,595 910,597.5 910,600 C 910,602.5 907.5,605 905,605 C 902.5,605 900,602.5 900,600z"/>
    <path style="fill: none; fill-opacity:0; stroke-width: 2; stroke: #0000ff" d="M 900 600 C 900,597.5 902.5,595 905,595 C 907.5,595 910,597.5 910,600 C 910,602.5 907.5,605 905,605 C 902.5,605 900,602.5 900,600"/>
    <polyline style="fill: none; fill-opacity:0; stroke-width: 2; stroke: #0000ff" points="927.764,605 937.764,600 927.764,595 "/>
  </g>
  <g>
    <line style="fill: none; fill-opacity:0; stroke-width: 2; stroke: #0000ff" x1="900" y1="680" x2="935.528" y2="680"/>
    <path style="fill: #0000ff" d="M 900 680 C 900,677.5 902.5,675 905,675 C 907.5,675 910,677.5 910,680 C 910,682.5 907.5,685 905,685 C 902.5,685 900,682.5 900,680z"/>
    <path style="fill: none; fill-opacity:0; stroke-width: 2; stroke: #0000ff" d="M 900 680 C 900,677.5 902.5,675 905,675 C 907.5,675 910,677.5 910,680 C 910,682.5 907.5,685 905,685 C 902.5,685 900,682.5 900,680"/>
    <polyline style="fill: none; fill-opacity:0; stroke-width: 2; stroke: #0000ff" points="927.764,685 937.764,680 927.764,675 "/>
  </g>
  <g>
    <line style="fill: none; fill-opacity:0; stroke-width: 2; stroke: #0000ff" x1="900" y1="640" x2="935.528" y2="640"/>
    <path style="fill: #0000ff" d="M 900 640 C 900,637.5 902.5,635 905,635 C 907.5,635 910,637.5 910,640 C 910,642.5 907.5,645 905,645 C 902.5,645 900,642.5 900,640z"/>
    <path style="fill: none; fill-opacity:0; stroke-width: 2; stroke: #0000ff" d="M 900 640 C 900,637.5 902.5,635 905,635 C 907.5,635 910,637.5 910,640 C 910,642.5 907.5,645 905,645 C 902.5,645 900,642.5 900,640"/>
    <polyline style="fill: none; fill-opacity:0; stroke-width: 2; stroke: #0000ff" points="927.764,645 937.764,640 927.764,635 "/>
  </g>
</svg>
