<?xml version="1.0" encoding="UTF-8" standalone="no"?>
<!-- Created with Inkscape (http://www.inkscape.org/) -->

<svg
   xmlns:dc="http://purl.org/dc/elements/1.1/"
   xmlns:cc="http://creativecommons.org/ns#"
   xmlns:rdf="http://www.w3.org/1999/02/22-rdf-syntax-ns#"
   xmlns:svg="http://www.w3.org/2000/svg"
   xmlns="http://www.w3.org/2000/svg"
   xmlns:sodipodi="http://sodipodi.sourceforge.net/DTD/sodipodi-0.dtd"
   xmlns:inkscape="http://www.inkscape.org/namespaces/inkscape"
   version="1.1"
   id="svg815"
   xml:space="preserve"
   width="939.67999"
   height="435.51999"
   viewBox="0 0 939.67999 435.51999"
   sodipodi:docname="linepack_illustration.svg"
   inkscape:version="0.92.4 (5da689c313, 2019-01-14)"><metadata
     id="metadata821"><rdf:RDF><cc:Work
         rdf:about=""><dc:format>image/svg+xml</dc:format><dc:type
           rdf:resource="http://purl.org/dc/dcmitype/StillImage" /><dc:title></dc:title></cc:Work></rdf:RDF></metadata><defs
     id="defs819"><clipPath
       clipPathUnits="userSpaceOnUse"
       id="clipPath831"><path
         d="M 0,1.2207e-4 H 960 V 540.00012 H 0 Z"
         id="path829"
         inkscape:connector-curvature="0"
         style="clip-rule:evenodd" /></clipPath><clipPath
       clipPathUnits="userSpaceOnUse"
       id="clipPath843"><path
         d="M 1.4305e-5,0 H 960.00001 V 540 H 1.4305e-5 Z"
         id="path841"
         inkscape:connector-curvature="0"
         style="clip-rule:evenodd" /></clipPath><clipPath
       clipPathUnits="userSpaceOnUse"
       id="clipPath857"><path
         d="M 1.4305e-5,0 H 960.00001 V 540 H 1.4305e-5 Z"
         id="path855"
         inkscape:connector-curvature="0"
         style="clip-rule:evenodd" /></clipPath><clipPath
       clipPathUnits="userSpaceOnUse"
       id="clipPath869"><path
         d="M 1.4305e-5,0 H 960.00001 V 540 H 1.4305e-5 Z"
         id="path867"
         inkscape:connector-curvature="0"
         style="clip-rule:evenodd" /></clipPath><clipPath
       clipPathUnits="userSpaceOnUse"
       id="clipPath883"><path
         d="M 1.4305e-5,0 H 960.00001 V 540 H 1.4305e-5 Z"
         id="path881"
         inkscape:connector-curvature="0"
         style="clip-rule:evenodd" /></clipPath><clipPath
       clipPathUnits="userSpaceOnUse"
       id="clipPath895"><path
         d="M 1.4305e-5,0 H 960.00001 V 540 H 1.4305e-5 Z"
         id="path893"
         inkscape:connector-curvature="0"
         style="clip-rule:evenodd" /></clipPath><clipPath
       clipPathUnits="userSpaceOnUse"
       id="clipPath907"><path
         d="M 1.4305e-5,0 H 960.00001 V 540 H 1.4305e-5 Z"
         id="path905"
         inkscape:connector-curvature="0"
         style="clip-rule:evenodd" /></clipPath><clipPath
       clipPathUnits="userSpaceOnUse"
       id="clipPath919"><path
         d="M 1.4305e-5,0 H 960.00001 V 540 H 1.4305e-5 Z"
         id="path917"
         inkscape:connector-curvature="0"
         style="clip-rule:evenodd" /></clipPath><clipPath
       clipPathUnits="userSpaceOnUse"
       id="clipPath931"><path
         d="M 1.4305e-5,0 H 960.00001 V 540 H 1.4305e-5 Z"
         id="path929"
         inkscape:connector-curvature="0"
         style="clip-rule:evenodd" /></clipPath><clipPath
       clipPathUnits="userSpaceOnUse"
       id="clipPath943"><path
         d="M -1.08e-7,540 H 960 V 0 L -1.9793e-5,6.1035e-5"
         id="path941"
         inkscape:connector-curvature="0"
         style="clip-rule:evenodd" /></clipPath><clipPath
       clipPathUnits="userSpaceOnUse"
       id="clipPath953"><path
         d="M -1.08e-7,540 H 960 V 0 H -1.9793e-5"
         id="path951"
         inkscape:connector-curvature="0"
         style="clip-rule:evenodd" /></clipPath><clipPath
       clipPathUnits="userSpaceOnUse"
       id="clipPath965"><path
         d="M 1.4305e-5,0 H 960.00001 V 540 H 1.4305e-5 Z"
         id="path963"
         inkscape:connector-curvature="0"
         style="clip-rule:evenodd" /></clipPath><clipPath
       clipPathUnits="userSpaceOnUse"
       id="clipPath977"><path
         d="M 1.4305e-5,0 H 960.00001 V 540 H 1.4305e-5 Z"
         id="path975"
         inkscape:connector-curvature="0"
         style="clip-rule:evenodd" /></clipPath><clipPath
       clipPathUnits="userSpaceOnUse"
       id="clipPath989"><path
         d="M 1.4305e-5,0 H 960.00001 V 540 H 1.4305e-5 Z"
         id="path987"
         inkscape:connector-curvature="0"
         style="clip-rule:evenodd" /></clipPath><clipPath
       clipPathUnits="userSpaceOnUse"
       id="clipPath1001"><path
         d="M 1.4305e-5,0 H 960.00001 V 540 H 1.4305e-5 Z"
         id="path999"
         inkscape:connector-curvature="0"
         style="clip-rule:evenodd" /></clipPath><clipPath
       clipPathUnits="userSpaceOnUse"
       id="clipPath1013"><path
         d="M 1.4305e-5,0 H 960.00001 V 540 H 1.4305e-5 Z"
         id="path1011"
         inkscape:connector-curvature="0"
         style="clip-rule:evenodd" /></clipPath><clipPath
       clipPathUnits="userSpaceOnUse"
       id="clipPath1025"><path
         d="M 1.4305e-5,0 H 960.00001 V 540 H 1.4305e-5 Z"
         id="path1023"
         inkscape:connector-curvature="0"
         style="clip-rule:evenodd" /></clipPath><clipPath
       clipPathUnits="userSpaceOnUse"
       id="clipPath1037"><path
         d="M 1.4305e-5,0 H 960.00001 V 540 H 1.4305e-5 Z"
         id="path1035"
         inkscape:connector-curvature="0"
         style="clip-rule:evenodd" /></clipPath><clipPath
       clipPathUnits="userSpaceOnUse"
       id="clipPath1049"><path
         d="M 1.4305e-5,0 H 960.00001 V 540 H 1.4305e-5 Z"
         id="path1047"
         inkscape:connector-curvature="0"
         style="clip-rule:evenodd" /></clipPath><clipPath
       clipPathUnits="userSpaceOnUse"
       id="clipPath1065"><path
         d="M -7.57e-7,540 H 960 V 0 L -4.0127e-5,6.1035e-5"
         id="path1063"
         inkscape:connector-curvature="0"
         style="clip-rule:evenodd" /></clipPath><clipPath
       clipPathUnits="userSpaceOnUse"
       id="clipPath1075"><path
         d="M -7.57e-7,540 H 960 V 0 L -4.0127e-5,6.1035e-5"
         id="path1073"
         inkscape:connector-curvature="0"
         style="clip-rule:evenodd" /></clipPath><clipPath
       clipPathUnits="userSpaceOnUse"
       id="clipPath1087"><path
         d="M 1.4305e-5,0 H 960.00001 V 540 H 1.4305e-5 Z"
         id="path1085"
         inkscape:connector-curvature="0"
         style="clip-rule:evenodd" /></clipPath><clipPath
       clipPathUnits="userSpaceOnUse"
       id="clipPath1099"><path
         d="M 1.4305e-5,0 H 960.00001 V 540 H 1.4305e-5 Z"
         id="path1097"
         inkscape:connector-curvature="0"
         style="clip-rule:evenodd" /></clipPath><clipPath
       clipPathUnits="userSpaceOnUse"
       id="clipPath1111"><path
         d="M 1.4305e-5,0 H 960.00001 V 540 H 1.4305e-5 Z"
         id="path1109"
         inkscape:connector-curvature="0"
         style="clip-rule:evenodd" /></clipPath><clipPath
       clipPathUnits="userSpaceOnUse"
       id="clipPath1123"><path
         d="M 1.4305e-5,0 H 960.00001 V 540 H 1.4305e-5 Z"
         id="path1121"
         inkscape:connector-curvature="0"
         style="clip-rule:evenodd" /></clipPath><clipPath
       clipPathUnits="userSpaceOnUse"
       id="clipPath1135"><path
         d="M 1.4305e-5,0 H 960.00001 V 540 H 1.4305e-5 Z"
         id="path1133"
         inkscape:connector-curvature="0"
         style="clip-rule:evenodd" /></clipPath><clipPath
       clipPathUnits="userSpaceOnUse"
       id="clipPath1147"><path
         d="M 1.4305e-5,0 H 960.00001 V 540 H 1.4305e-5 Z"
         id="path1145"
         inkscape:connector-curvature="0"
         style="clip-rule:evenodd" /></clipPath><clipPath
       clipPathUnits="userSpaceOnUse"
       id="clipPath1159"><path
         d="M 1.4305e-5,0 H 960.00001 V 540 H 1.4305e-5 Z"
         id="path1157"
         inkscape:connector-curvature="0"
         style="clip-rule:evenodd" /></clipPath><clipPath
       clipPathUnits="userSpaceOnUse"
       id="clipPath1171"><path
         d="M 1.4305e-5,0 H 960.00001 V 540 H 1.4305e-5 Z"
         id="path1169"
         inkscape:connector-curvature="0"
         style="clip-rule:evenodd" /></clipPath><clipPath
       clipPathUnits="userSpaceOnUse"
       id="clipPath1191"><path
         d="M 1.4305e-5,0 H 960.00001 V 540 H 1.4305e-5 Z"
         id="path1189"
         inkscape:connector-curvature="0"
         style="clip-rule:evenodd" /></clipPath><clipPath
       clipPathUnits="userSpaceOnUse"
       id="clipPath1203"><path
         d="M 1.4305e-5,0 H 960.00001 V 540 H 1.4305e-5 Z"
         id="path1201"
         inkscape:connector-curvature="0"
         style="clip-rule:evenodd" /></clipPath></defs><sodipodi:namedview
     pagecolor="#ffffff"
     bordercolor="#666666"
     borderopacity="1"
     objecttolerance="10"
     gridtolerance="10"
     guidetolerance="10"
     inkscape:pageopacity="0"
     inkscape:pageshadow="2"
     inkscape:window-width="1920"
     inkscape:window-height="1017"
     id="namedview817"
     showgrid="false"
     inkscape:zoom="1.1361111"
     inkscape:cx="497.12"
     inkscape:cy="191.84"
     inkscape:window-x="-8"
     inkscape:window-y="-8"
     inkscape:window-maximized="1"
     inkscape:current-layer="g823" /><g
     id="g823"
     inkscape:groupmode="layer"
     inkscape:label="Presentation1"
     transform="matrix(1.3333333,0,0,-1.3333333,-142.88,603.67998)"><path
       d="m 335.76,239.16 h 244.8 v 69.36 h -244.8 z"
       style="fill:none;stroke:#000000;stroke-width:0.95999998;stroke-linecap:butt;stroke-linejoin:miter;stroke-miterlimit:10;stroke-dasharray:none;stroke-opacity:1"
       id="path835"
       inkscape:connector-curvature="0" /><g
       id="g837"><g
         id="g839"
         clip-path="url(#clipPath843)"><text
           transform="matrix(1,0,0,-1,379.54,269.71)"
           style="font-variant:normal;font-weight:500;font-size:15.98400021px;font-family:'CMU Sans Serif';-inkscape-font-specification:CMUSansSerif;writing-mode:lr-tb;fill:#000000;fill-opacity:1;fill-rule:nonzero;stroke:none"
           id="text847"><tspan
             x="0 10.661328 18.333649 24.455521 29.778193 36.875088 44.755199 53.018929 61.282658 68.379555 75.476448 81.246674 85.066849 92.994911 101.25864 106.90099 115.16472 118.98489 127.28059 134.37749 138.19766 142.01784 150.28157"
             y="0"
             sodipodi:role="line"
             id="tspan845">Gas connection pipeline</tspan></text>
</g></g><path
       d="m 372.72,430.98 c 0,11.76 36.4,21.3 81.3,21.3 44.9,0 81.3,-9.54 81.3,-21.3 0,-11.76 -36.4,-21.3 -81.3,-21.3 -44.9,0 -81.3,9.54 -81.3,21.3 z"
       style="fill:none;stroke:#000000;stroke-width:0.95999998;stroke-linecap:butt;stroke-linejoin:miter;stroke-miterlimit:10;stroke-dasharray:none;stroke-opacity:1"
       id="path849"
       inkscape:connector-curvature="0" /><g
       id="g851"><g
         id="g853"
         clip-path="url(#clipPath857)"><text
           transform="matrix(1,0,0,-1,422.86,436.85)"
           style="font-variant:normal;font-weight:500;font-size:17.06399918px;font-family:'CMU Sans Serif';-inkscape-font-specification:CMUSansSerif;writing-mode:lr-tb;fill:#000000;fill-opacity:1;fill-rule:nonzero;stroke:none"
           id="text861"><tspan
             x="0 9.2486877 13.326984 22.080816 29.657232 38.394001 46.584721 54.161137"
             y="0"
             sodipodi:role="line"
             id="tspan859">Linepack</tspan></text>
</g></g><g
       id="g863"><g
         id="g865"
         clip-path="url(#clipPath869)"><text
           transform="matrix(1,0,0,-1,428.38,416.42)"
           style="font-variant:normal;font-weight:500;font-size:17.04000092px;font-family:'CMU Sans Serif';-inkscape-font-specification:CMUSansSerif;writing-mode:lr-tb;fill:#000000;fill-opacity:1;fill-rule:nonzero;stroke:none"
           id="text873"><tspan
             x="0 6.52632 12.59256 21.11256 26.974319 35.153519 43.673519"
             y="0"
             sodipodi:role="line"
             id="tspan871">storage</tspan></text>
</g></g><path
       d="m 464.26,312.55 v 97.13 h 1 v -97.13 z m 3.5,1 -3,-6 -3,6 z"
       style="fill:#000000;fill-opacity:1;fill-rule:nonzero;stroke:none"
       id="path875"
       inkscape:connector-curvature="0" /><g
       id="g877"><g
         id="g879"
         clip-path="url(#clipPath883)"><text
           transform="matrix(-4.4e-8,1,1,4.4e-8,477.46,328.49)"
           style="font-variant:normal;font-weight:500;font-size:14.03999996px;font-family:'CMU Sans Serif';-inkscape-font-specification:CMUSansSerif;writing-mode:lr-tb;fill:#000000;fill-opacity:1;fill-rule:nonzero;stroke:none"
           id="text887"><tspan
             x="0 4.2821999 9.0838804 16.18812 27.33588 31.78656 38.989079 46.051201 53.253719"
             y="0"
             sodipodi:role="line"
             id="tspan885">from node</tspan></text>
</g></g><g
       id="g889"><g
         id="g891"
         clip-path="url(#clipPath895)"><text
           transform="matrix(-4.4e-8,1,1,4.4e-8,445.68,336.14)"
           style="font-variant:normal;font-weight:500;font-size:14.03999996px;font-family:'CMU Sans Serif';-inkscape-font-specification:CMUSansSerif;writing-mode:lr-tb;fill:#000000;fill-opacity:1;fill-rule:nonzero;stroke:none"
           id="text899"><tspan
             x="0"
             y="0"
             id="tspan897">t</tspan></text>
</g></g><g
       id="g901"><g
         id="g903"
         clip-path="url(#clipPath907)"><text
           transform="matrix(-4.4e-8,1,1,4.4e-8,445.68,341.18)"
           style="font-variant:normal;font-weight:500;font-size:14.03999996px;font-family:'CMU Sans Serif';-inkscape-font-specification:CMUSansSerif;writing-mode:lr-tb;fill:#000000;fill-opacity:1;fill-rule:nonzero;stroke:none"
           id="text911"><tspan
             x="0 7.06212 11.62512 18.827641 25.889759 33.092281"
             y="0"
             sodipodi:role="line"
             id="tspan909">o node</tspan></text>
</g></g><g
       id="g913"><g
         id="g915"
         clip-path="url(#clipPath919)"><text
           transform="matrix(1,0,0,-1,545.52,430.01)"
           style="font-variant:normal;font-weight:500;font-size:14.03999996px;font-family:'CMU Sans Serif';-inkscape-font-specification:CMUSansSerif;writing-mode:lr-tb;fill:#000000;fill-opacity:1;fill-rule:nonzero;stroke:none"
           id="text923"><tspan
             x="0 7.2025199 13.94172 19.31904 30.242161 35.61948 40.68792 47.42712 52.4394"
             y="0"
             sodipodi:role="line"
             id="tspan921">has_state</tspan></text>
</g></g><g
       id="g925"><g
         id="g927"
         clip-path="url(#clipPath931)"><text
           transform="matrix(1,0,0,-1,604.22,430.01)"
           style="font-variant:normal;font-weight:500;font-size:14.03999996px;font-family:'CMU Sans Serif';-inkscape-font-specification:CMUSansSerif;writing-mode:lr-tb;fill:#000000;fill-opacity:1;fill-rule:nonzero;stroke:none"
           id="text935"><tspan
             x="0 3.94524 8.3818798 13.45032 18.252001 25.426439"
             y="0"
             sodipodi:role="line"
             id="tspan933">: true</tspan></text>
</g></g><g
       id="g937"><g
         id="g939"
         clip-path="url(#clipPath943)"><path
           d="m 226.56,275.78 h 97.13 v -1 h -97.13 z m 96.13,2.5 6,-3 -6,-3 z"
           style="fill:#000000;fill-opacity:1;fill-rule:nonzero;stroke:none"
           id="path945"
           inkscape:connector-curvature="0" /></g></g><g
       id="g947"><g
         id="g949"
         clip-path="url(#clipPath953)"><path
           d="m 231.56,264.98 h 97.13 v -1 h -97.13 z m 1,-3.5 -6,3 6,3 z"
           style="fill:#000000;fill-opacity:1;fill-rule:nonzero;stroke:none"
           id="path955"
           inkscape:connector-curvature="0" /></g></g><path
       d="m 117.48,269.88 c 0,11.73 25.39,21.24 56.7,21.24 31.31,0 56.7,-9.51 56.7,-21.24 0,-11.73 -25.39,-21.24 -56.7,-21.24 -31.31,0 -56.7,9.51 -56.7,21.24 z"
       style="fill:none;stroke:#000000;stroke-width:0.95999998;stroke-linecap:butt;stroke-linejoin:miter;stroke-miterlimit:10;stroke-dasharray:none;stroke-opacity:1"
       id="path957"
       inkscape:connector-curvature="0" /><g
       id="g959"><g
         id="g961"
         clip-path="url(#clipPath965)"><text
           transform="matrix(1,0,0,-1,144.41,275.66)"
           style="font-variant:normal;font-weight:500;font-size:17.04000092px;font-family:'CMU Sans Serif';-inkscape-font-specification:CMUSansSerif;writing-mode:lr-tb;fill:#000000;fill-opacity:1;fill-rule:nonzero;stroke:none"
           id="text969"><tspan
             x="0 10.88856 16.784401 24.350161 30.825359 37.351681 46.05912 51.920879 59.486641"
             y="0"
             sodipodi:role="line"
             id="tspan967">Pressure </tspan></text>
</g></g><g
       id="g971"><g
         id="g973"
         clip-path="url(#clipPath977)"><text
           transform="matrix(1,0,0,-1,150.29,255.26)"
           style="font-variant:normal;font-weight:500;font-size:17.04000092px;font-family:'CMU Sans Serif';-inkscape-font-specification:CMUSansSerif;writing-mode:lr-tb;fill:#000000;fill-opacity:1;fill-rule:nonzero;stroke:none"
           id="text981"><tspan
             x="0 8.80968 17.329679 26.037121 33.602879 39.12384"
             y="0"
             sodipodi:role="line"
             id="tspan979">node 1</tspan></text>
</g></g><g
       id="g983"><g
         id="g985"
         clip-path="url(#clipPath989)"><text
           transform="matrix(1,0,0,-1,252.14,253.32)"
           style="font-variant:normal;font-weight:500;font-size:14.03999996px;font-family:'CMU Sans Serif';-inkscape-font-specification:CMUSansSerif;writing-mode:lr-tb;fill:#000000;fill-opacity:1;fill-rule:nonzero;stroke:none"
           id="text993"><tspan
             x="0 4.2821999 9.0838804 16.18812 27.33588 31.78656 38.989079 46.051201 53.253719"
             y="0"
             sodipodi:role="line"
             id="tspan991">from node</tspan></text>
</g></g><g
       id="g995"><g
         id="g997"
         clip-path="url(#clipPath1001)"><text
           transform="matrix(1,0,0,-1,259.8,285.12)"
           style="font-variant:normal;font-weight:500;font-size:14.03999996px;font-family:'CMU Sans Serif';-inkscape-font-specification:CMUSansSerif;writing-mode:lr-tb;fill:#000000;fill-opacity:1;fill-rule:nonzero;stroke:none"
           id="text1005"><tspan
             x="0 5.06844 12.08844 16.67952 23.88204 30.94416 38.146679"
             y="0"
             sodipodi:role="line"
             id="tspan1003">to node</tspan></text>
</g></g><g
       id="g1007"><g
         id="g1009"
         clip-path="url(#clipPath1013)"><text
           transform="matrix(1,0,0,-1,112.66,223.63)"
           style="font-variant:normal;font-weight:500;font-size:14.03999996px;font-family:'CMU Sans Serif';-inkscape-font-specification:CMUSansSerif;writing-mode:lr-tb;fill:#000000;fill-opacity:1;fill-rule:nonzero;stroke:none"
           id="text1017"><tspan
             x="0 7.2025199 13.94172 19.31904 30.242161 37.444679 42.246361 48.480122 53.857441 59.276878 66.479401 71.281082"
             y="0"
             sodipodi:role="line"
             id="tspan1015">has_pressure</tspan></text>
</g></g><g
       id="g1019"><g
         id="g1021"
         clip-path="url(#clipPath1025)"><text
           transform="matrix(1,0,0,-1,190.2,223.63)"
           style="font-variant:normal;font-weight:500;font-size:14.03999996px;font-family:'CMU Sans Serif';-inkscape-font-specification:CMUSansSerif;writing-mode:lr-tb;fill:#000000;fill-opacity:1;fill-rule:nonzero;stroke:none"
           id="text1029"><tspan
             x="0 3.94524 8.5082397 13.57668 18.378361 25.552799"
             y="0"
             sodipodi:role="line"
             id="tspan1027">: true</tspan></text>
</g></g><g
       id="g1031"><g
         id="g1033"
         clip-path="url(#clipPath1037)"><text
           transform="matrix(1,0,0,-1,112.66,206.83)"
           style="font-variant:normal;font-weight:500;font-size:14.03999996px;font-family:'CMU Sans Serif';-inkscape-font-specification:CMUSansSerif;writing-mode:lr-tb;fill:#000000;fill-opacity:1;fill-rule:nonzero;stroke:none"
           id="text1041"><tspan
             x="0 11.14776 14.50332 21.761999"
             y="0"
             sodipodi:role="line"
             id="tspan1039">min/</tspan></text>
</g></g><g
       id="g1043"><g
         id="g1045"
         clip-path="url(#clipPath1049)"><text
           transform="matrix(1,0,0,-1,141.46,206.83)"
           style="font-variant:normal;font-weight:500;font-size:14.03999996px;font-family:'CMU Sans Serif';-inkscape-font-specification:CMUSansSerif;writing-mode:lr-tb;fill:#000000;fill-opacity:1;fill-rule:nonzero;stroke:none"
           id="text1053"><tspan
             x="0 11.14776 17.886959 24.3594 35.28252 42.485039 47.28672 53.520481 58.8978 64.317238 71.51976 76.321442"
             y="0"
             sodipodi:role="line"
             id="tspan1051">max_pressure</tspan></text>
</g></g><g
       id="g1055"><path
         d="m 107.64,269.94 c 0,16.47 29.76,29.82 66.48,29.82 36.72,0 66.48,-13.35 66.48,-29.82 0,-16.47 -29.76,-29.82 -66.48,-29.82 -36.72,0 -66.48,13.35 -66.48,29.82 z"
         style="fill:none;stroke:#404040;stroke-width:0.95999998;stroke-linecap:butt;stroke-linejoin:miter;stroke-miterlimit:10;stroke-dasharray:2.88, 0.96;stroke-dashoffset:0;stroke-opacity:1"
         id="path1057"
         inkscape:connector-curvature="0" /></g><g
       id="g1059"><g
         id="g1061"
         clip-path="url(#clipPath1065)"><path
           d="m 587.64,281.18 h 97.13 v -1 h -97.13 z m 96.13,2.5 6,-3 -6,-3 z"
           style="fill:#000000;fill-opacity:1;fill-rule:nonzero;stroke:none"
           id="path1067"
           inkscape:connector-curvature="0" /></g></g><g
       id="g1069"><g
         id="g1071"
         clip-path="url(#clipPath1075)"><path
           d="m 592.64,270.38 h 97.13 v -1 h -97.13 z m 1,-3.5 -6,3 6,3 z"
           style="fill:#000000;fill-opacity:1;fill-rule:nonzero;stroke:none"
           id="path1077"
           inkscape:connector-curvature="0" /></g></g><path
       d="m 689.76,275.22 c 0,11.76 25.39,21.3 56.7,21.3 31.31,0 56.7,-9.54 56.7,-21.3 0,-11.76 -25.39,-21.3 -56.7,-21.3 -31.31,0 -56.7,9.54 -56.7,21.3 z"
       style="fill:none;stroke:#000000;stroke-width:0.95999998;stroke-linecap:butt;stroke-linejoin:miter;stroke-miterlimit:10;stroke-dasharray:none;stroke-opacity:1"
       id="path1079"
       inkscape:connector-curvature="0" /><g
       id="g1081"><g
         id="g1083"
         clip-path="url(#clipPath1087)"><text
           transform="matrix(1,0,0,-1,716.78,281.06)"
           style="font-variant:normal;font-weight:500;font-size:17.04000092px;font-family:'CMU Sans Serif';-inkscape-font-specification:CMUSansSerif;writing-mode:lr-tb;fill:#000000;fill-opacity:1;fill-rule:nonzero;stroke:none"
           id="text1091"><tspan
             x="0 10.88856 16.784401 24.350161 30.825359 37.351681 46.05912 51.920879 59.486641"
             y="0"
             sodipodi:role="line"
             id="tspan1089">Pressure </tspan></text>
</g></g><g
       id="g1093"><g
         id="g1095"
         clip-path="url(#clipPath1099)"><text
           transform="matrix(1,0,0,-1,722.66,260.66)"
           style="font-variant:normal;font-weight:500;font-size:17.04000092px;font-family:'CMU Sans Serif';-inkscape-font-specification:CMUSansSerif;writing-mode:lr-tb;fill:#000000;fill-opacity:1;fill-rule:nonzero;stroke:none"
           id="text1103"><tspan
             x="0 8.80968 17.329679 26.037121 33.602879 39.12384"
             y="0"
             sodipodi:role="line"
             id="tspan1101">node 2</tspan></text>
</g></g><g
       id="g1105"><g
         id="g1107"
         clip-path="url(#clipPath1111)"><text
           transform="matrix(1,0,0,-1,604.78,256.75)"
           style="font-variant:normal;font-weight:500;font-size:14.03999996px;font-family:'CMU Sans Serif';-inkscape-font-specification:CMUSansSerif;writing-mode:lr-tb;fill:#000000;fill-opacity:1;fill-rule:nonzero;stroke:none"
           id="text1115"><tspan
             x="0 4.2821999 9.0838804 16.18812 27.33588 31.78656 38.989079 46.051201 53.253719"
             y="0"
             sodipodi:role="line"
             id="tspan1113">from node</tspan></text>
</g></g><g
       id="g1117"><g
         id="g1119"
         clip-path="url(#clipPath1123)"><text
           transform="matrix(1,0,0,-1,612.41,288.55)"
           style="font-variant:normal;font-weight:500;font-size:14.03999996px;font-family:'CMU Sans Serif';-inkscape-font-specification:CMUSansSerif;writing-mode:lr-tb;fill:#000000;fill-opacity:1;fill-rule:nonzero;stroke:none"
           id="text1127"><tspan
             x="0 5.06844 12.08844 16.67952 23.88204 30.94416 38.146679"
             y="0"
             sodipodi:role="line"
             id="tspan1125">to node</tspan></text>
</g></g><g
       id="g1129"><g
         id="g1131"
         clip-path="url(#clipPath1135)"><text
           transform="matrix(1,0,0,-1,700.63,227.18)"
           style="font-variant:normal;font-weight:500;font-size:14.06400013px;font-family:'CMU Sans Serif';-inkscape-font-specification:CMUSansSerif;writing-mode:lr-tb;fill:#000000;fill-opacity:1;fill-rule:nonzero;stroke:none"
           id="text1139"><tspan
             x="0 7.200768 13.951488 19.337999 30.279793 37.43837 42.248257 48.492672 53.879185 59.265697 66.48053 71.290413"
             y="0"
             sodipodi:role="line"
             id="tspan1137">has_pressure</tspan></text>
</g></g><g
       id="g1141"><g
         id="g1143"
         clip-path="url(#clipPath1147)"><text
           transform="matrix(1,0,0,-1,778.18,227.18)"
           style="font-variant:normal;font-weight:500;font-size:14.06400013px;font-family:'CMU Sans Serif';-inkscape-font-specification:CMUSansSerif;writing-mode:lr-tb;fill:#000000;fill-opacity:1;fill-rule:nonzero;stroke:none"
           id="text1151"><tspan
             x="0 3.9519839 8.5087204 13.585824 18.353519 25.554289"
             y="0"
             sodipodi:role="line"
             id="tspan1149">: true</tspan></text>
</g></g><g
       id="g1153"><g
         id="g1155"
         clip-path="url(#clipPath1159)"><text
           transform="matrix(1,0,0,-1,700.63,210.36)"
           style="font-variant:normal;font-weight:500;font-size:14.03999996px;font-family:'CMU Sans Serif';-inkscape-font-specification:CMUSansSerif;writing-mode:lr-tb;fill:#000000;fill-opacity:1;fill-rule:nonzero;stroke:none"
           id="text1163"><tspan
             x="0 11.14776 14.50332 21.761999"
             y="0"
             sodipodi:role="line"
             id="tspan1161">min/</tspan></text>
</g></g><g
       id="g1165"><g
         id="g1167"
         clip-path="url(#clipPath1171)"><text
           transform="matrix(1,0,0,-1,729.43,210.36)"
           style="font-variant:normal;font-weight:500;font-size:14.03999996px;font-family:'CMU Sans Serif';-inkscape-font-specification:CMUSansSerif;writing-mode:lr-tb;fill:#000000;fill-opacity:1;fill-rule:nonzero;stroke:none"
           id="text1175"><tspan
             x="0 11.14776 17.886959 24.3594 35.28252 42.485039 47.28672 53.520481 58.8978 64.317238 71.51976 76.321442"
             y="0"
             sodipodi:role="line"
             id="tspan1173">max_pressure</tspan></text>
</g></g><g
       id="g1177"><path
         d="m 678.48,275.22 c 0,16.47 29.76,29.82 66.48,29.82 36.72,0 66.48,-13.35 66.48,-29.82 0,-16.47 -29.76,-29.82 -66.48,-29.82 -36.72,0 -66.48,13.35 -66.48,29.82 z"
         style="fill:none;stroke:#404040;stroke-width:0.95999998;stroke-linecap:butt;stroke-linejoin:miter;stroke-miterlimit:10;stroke-dasharray:2.88, 0.96;stroke-dashoffset:0;stroke-opacity:1"
         id="path1179"
         inkscape:connector-curvature="0" /></g><g
       id="g1181"><path
         d="m 409.2,147.06 c 0,11.3 30.92,20.46 69.06,20.46 38.14,0 69.06,-9.16 69.06,-20.46 0,-11.3 -30.92,-20.46 -69.06,-20.46 -38.14,0 -69.06,9.16 -69.06,20.46 z"
         style="fill:none;stroke:#404040;stroke-width:0.95999998;stroke-linecap:butt;stroke-linejoin:miter;stroke-miterlimit:10;stroke-dasharray:2.88, 0.96;stroke-dashoffset:0;stroke-opacity:1"
         id="path1183"
         inkscape:connector-curvature="0" /></g><g
       id="g1185"><g
         id="g1187"
         clip-path="url(#clipPath1191)"><text
           transform="matrix(1,0,0,-1,448.56,152.86)"
           style="font-variant:normal;font-weight:500;font-size:17.04000092px;font-family:'CMU Sans Serif';-inkscape-font-specification:CMUSansSerif;writing-mode:lr-tb;fill:#595959;fill-opacity:1;fill-rule:nonzero;stroke:none"
           id="text1195"><tspan
             x="0 10.88856 16.784401 24.350161 30.825359 37.351681 46.05912 51.920879 59.486641"
             y="0"
             sodipodi:role="line"
             id="tspan1193">Pressure </tspan></text>
</g></g><g
       id="g1197"><g
         id="g1199"
         clip-path="url(#clipPath1203)"><text
           transform="matrix(1,0,0,-1,458.04,132.46)"
           style="font-variant:normal;font-weight:500;font-size:17.04000092px;font-family:'CMU Sans Serif';-inkscape-font-specification:CMUSansSerif;writing-mode:lr-tb;fill:#595959;fill-opacity:1;fill-rule:nonzero;stroke:none"
           id="text1207"><tspan
             x="0 8.5200005 14.38176 22.90176 31.711439"
             y="0"
             sodipodi:role="line"
             id="tspan1205">group</tspan></text>
</g></g><path
       d="m 547.33,146.57 3,0.06 -0.02,1 -3,-0.06 z m 4,0.09 3,0.06 -0.02,1 -3,-0.06 z m 4.02,0.13 2.99,0.19 -0.06,1 -3,-0.2 z m 3.99,0.26 2.12,0.13 0.89,0.1 -0.1,0.99 -0.88,-0.09 h 0.02 l -2.11,-0.14 z m 4.01,0.34 2.98,0.31 -0.11,1 -2.98,-0.32 z m 3.97,0.42 1.18,0.13 1.82,0.27 -0.15,0.99 -1.8,-0.27 h 0.02 l -1.17,-0.13 z m 3.99,0.55 2.96,0.44 -0.14,0.99 -2.97,-0.45 z m 3.95,0.59 0.24,0.03 2.73,0.52 -0.19,0.98 -2.72,-0.51 h 0.02 l -0.23,-0.03 z m 3.95,0.74 2.95,0.56 -0.19,0.98 -2.94,-0.56 z m 3.95,0.77 2.92,0.67 -0.22,0.98 -2.93,-0.67 z m 3.89,0.9 2.26,0.52 0.68,0.18 -0.26,0.97 -0.67,-0.18 h 0.02 l -2.25,-0.52 z m 3.91,0.96 2.89,0.78 -0.26,0.97 -2.9,-0.78 z m 3.86,1.05 1.28,0.34 1.61,0.51 -0.29,0.95 -1.61,-0.5 0.02,0.01 -1.27,-0.35 z m 3.85,1.14 2.86,0.89 -0.29,0.96 -2.87,-0.89 z m 3.82,1.19 0.3,0.1 2.55,0.89 -0.33,0.95 -2.54,-0.9 0.01,0.01 -0.29,-0.09 z m 3.79,1.32 2.83,1 -0.33,0.94 -2.83,-0.99 z m 3.78,1.37 2.79,1.1 -0.36,0.93 -2.79,-1.1 z m 3.72,1.46 2.04,0.81 0.76,0.33 -0.4,0.92 -0.75,-0.33 0.02,0.01 -2.03,-0.8 z m 3.71,1.54 2.75,1.2 -0.4,0.92 -2.75,-1.2 z m 3.67,1.6 0.98,0.43 1.76,0.84 -0.44,0.91 -1.75,-0.84 h 0.02 l -0.97,-0.42 z m 3.64,1.71 2.7,1.3 -0.43,0.9 -2.71,-1.3 z m 3.62,1.74 2.65,1.4 -0.47,0.89 -2.65,-1.4 z m 3.54,1.87 2.35,1.24 0.31,0.18 -0.5,0.87 -0.3,-0.18 0.01,0.01 -2.34,-1.24 z m 3.53,1.92 2.59,1.5 -0.49,0.86 -2.6,-1.49 z m 3.46,2 1.18,0.67 1.4,0.89 -0.53,0.84 -1.4,-0.87 0.02,0.01 -1.17,-0.68 z m 3.43,2.09 2.54,1.59 -0.53,0.85 -2.54,-1.6 z m 3.41,2.13 2.47,1.69 -0.56,0.83 -2.48,-1.69 z m 3.3,2.26 2.08,1.41 0.4,0.3 -0.59,0.81 -0.4,-0.3 0.02,0.02 -2.07,-1.42 z m 3.29,2.31 2.41,1.79 -0.6,0.8 -2.41,-1.79 z m 3.21,2.38 0.78,0.58 1.6,1.29 -0.63,0.77 -1.59,-1.28 0.01,0.01 -0.76,-0.57 z m 3.16,2.49 2.33,1.89 -0.63,0.77 -2.33,-1.88 z m 3.11,2.55 2.25,1.98 -0.66,0.75 -2.25,-1.98 z m 3,2.64 1.19,1.04 1.04,1 -0.69,0.72 -1.03,-0.99 0.02,0.01 -1.18,-1.03 z m 2.96,2.73 2.16,2.07 -0.69,0.72 -2.17,-2.07 z m 2.89,2.79 2.07,2.17 -0.72,0.69 -2.07,-2.17 z m 2.76,2.9 1.22,1.28 0.82,0.95 -0.76,0.65 -0.81,-0.94 0.02,0.02 -1.21,-1.27 z m 2.69,2.98 1.97,2.27 -0.76,0.66 -1.96,-2.27 z m 2.62,3.06 1.85,2.37 -0.79,0.61 -1.85,-2.36 z m 2.46,3.16 0.92,1.18 0.88,1.25 -0.82,0.57 -0.87,-1.24 0.01,0.02 -0.91,-1.17 z m 2.37,3.25 1.72,2.46 -0.82,0.57 -1.72,-2.46 z m 2.26,3.33 1.58,2.56 -0.86,0.52 -1.57,-2.55 z m 2.1,3.41 0.39,0.64 1.08,2.01 -0.88,0.47 -1.07,-2 0.01,0.03 -0.38,-0.63 z m 1.94,3.53 1.05,1.95 0.34,0.74 -0.91,0.42 -0.34,-0.73 0.02,0.03 -1.04,-1.94 z m 1.8,3.6 1.25,2.73 -0.91,0.42 -1.25,-2.73 z m 1.65,3.69 1.05,2.81 -0.94,0.35 -1.05,-2.81 z m 1.4,3.74 0.29,0.77 0.62,2.13 -0.96,0.28 -0.61,-2.11 0.01,0.04 -0.29,-0.76 z m 1.19,3.86 0.56,1.91 0.22,1.02 -0.98,0.21 -0.21,-1 0.01,0.04 -0.56,-1.9 z m 0.99,3.91 0.63,2.93 -0.98,0.21 -0.63,-2.93 z m 0.76,3.97 0.34,2.98 -1,0.12 -0.34,-2.98 z m 0.45,3.98 0.02,0.14 -1,0.12 -0.01,-0.15 z m 2.46,-0.97 -2.65,6.16 -3.34,-5.82 z"
       style="fill:#404040;fill-opacity:1;fill-rule:nonzero;stroke:none"
       id="path1209"
       inkscape:connector-curvature="0" /><path
       d="m 409.15,146.54 -3,0.05 0.02,1 3,-0.05 z m -4,0.07 -2.99,0.05 0.01,1 3,-0.05 z m -3.99,0.06 -0.83,0.02 -2.19,0.11 0.05,0.99 2.18,-0.1 h -0.01 l 0.81,-0.02 z m -4.02,0.18 -2.99,0.14 0.05,1 2.99,-0.15 z m -3.99,0.19 -1.62,0.08 -1.39,0.12 0.08,0.99 1.38,-0.11 h -0.02 l 1.62,-0.08 z m -4.01,0.28 -2.99,0.24 0.08,1 2.99,-0.25 z m -3.98,0.32 -2.41,0.2 -0.6,0.07 0.11,0.99 0.6,-0.07 h -0.02 l 2.4,-0.19 z m -4,0.38 -2.98,0.34 0.11,0.99 2.98,-0.34 z m -3.98,0.45 -2.98,0.34 0.12,0.99 2.98,-0.34 z m -3.98,0.48 -2.97,0.43 0.14,0.99 2.97,-0.43 z m -3.96,0.57 -2.97,0.43 0.14,0.99 2.97,-0.43 z m -3.98,0.58 -2.95,0.52 0.17,0.98 2.96,-0.52 z m -3.94,0.69 -2.95,0.52 0.17,0.98 2.96,-0.52 z m -3.94,0.69 -0.56,0.1 -2.39,0.49 0.2,0.98 2.38,-0.49 H 357 l 0.56,-0.1 z m -3.93,0.79 -2.94,0.61 0.2,0.98 2.94,-0.61 z m -3.92,0.81 -1.18,0.25 -1.76,0.42 0.23,0.97 1.75,-0.42 -0.01,0.01 1.17,-0.25 z m -3.91,0.9 -2.92,0.69 0.23,0.97 2.92,-0.69 z m -3.89,0.92 -1.72,0.41 -1.21,0.32 0.26,0.97 1.2,-0.33 -0.01,0.01 1.71,-0.41 z m -3.89,0.99 -2.9,0.78 0.26,0.96 2.89,-0.78 z m -3.87,1.04 -2.16,0.58 -0.74,0.22 0.28,0.96 0.74,-0.22 h -0.02 l 2.16,-0.58 z m -3.86,1.09 -2.87,0.86 0.28,0.96 2.88,-0.87 z m -3.83,1.15 -2.52,0.76 -0.37,0.12 0.32,0.95 0.36,-0.12 h -0.02 l 2.52,-0.75 z m -3.83,1.19 -2.85,0.95 0.32,0.95 2.84,-0.95 z m -3.8,1.27 -2.77,0.92 -0.09,0.03 0.34,0.94 0.08,-0.03 h -0.01 l 2.77,-0.92 z m -3.8,1.29 -2.81,1.04 0.34,0.94 2.82,-1.04 z m -3.75,1.38 -2.82,1.03 0.34,0.94 2.82,-1.03 z m -3.76,1.41 -2.79,1.12 0.38,0.92 2.78,-1.11 z m -3.72,1.49 -2.78,1.12 0.37,0.93 2.79,-1.12 z m -3.71,1.52 -2.75,1.21 0.4,0.91 2.75,-1.2 z m -3.66,1.61 -2.75,1.21 0.4,0.91 2.75,-1.2 z m -3.67,1.64 -2.7,1.3 0.43,0.9 2.7,-1.29 z m -3.61,1.73 -2.54,1.21 -0.18,0.09 0.46,0.89 0.18,-0.09 -0.02,0.01 2.53,-1.21 z m -3.6,1.76 -2.67,1.39 0.47,0.89 2.66,-1.39 z m -3.55,1.85 -2.14,1.11 -0.53,0.3 0.49,0.87 0.52,-0.29 h -0.01 l 2.13,-1.1 z m -3.54,1.9 -2.61,1.47 0.49,0.87 2.61,-1.47 z m -3.49,1.97 -1.6,0.9 -1,0.62 0.52,0.85 0.99,-0.61 -0.01,0.01 1.6,-0.9 z m -3.45,2.04 -2.56,1.57 0.52,0.85 2.56,-1.57 z m -3.41,2.1 -0.93,0.57 -1.6,1.07 0.55,0.83 1.6,-1.07 -0.02,0.01 0.92,-0.56 z m -3.37,2.19 -2.49,1.67 0.56,0.83 2.49,-1.67 z m -3.32,2.23 -0.13,0.08 -2.31,1.69 0.59,0.81 2.3,-1.69 -0.01,0.02 0.11,-0.08 z m -3.25,2.36 -2.42,1.78 0.59,0.8 2.42,-1.77 z m -3.22,2.41 -2.34,1.88 0.62,0.78 2.34,-1.88 z m -3.12,2.5 -1.31,1.04 -1.01,0.9 0.66,0.75 1.01,-0.89 -0.02,0.02 1.29,-1.04 z m -3.07,2.6 -2.25,1.99 0.66,0.75 2.25,-1.99 z m -3,2.65 -0.09,0.07 -2.08,2.04 0.7,0.71 2.07,-2.03 -0.01,0.02 0.07,-0.06 z m -2.89,2.81 -1.67,1.63 -0.47,0.51 0.74,0.67 0.46,-0.5 -0.02,0.02 1.66,-1.62 z m -2.81,2.88 -2.03,2.21 0.74,0.67 2.03,-2.21 z m -2.7,2.95 -0.24,0.26 -1.69,2.08 0.78,0.63 1.67,-2.07 -0.02,0.02 0.23,-0.25 z m -2.55,3.12 -1.36,1.67 -0.5,0.72 0.81,0.57 0.5,-0.7 -0.02,0.03 1.34,-1.67 z m -2.44,3.21 -1.73,2.45 0.82,0.58 1.73,-2.46 z m -2.3,3.31 -1.54,2.58 0.86,0.51 1.53,-2.58 z m -2.06,3.44 -0.58,0.98 -0.87,1.67 0.89,0.46 0.86,-1.66 -0.02,0.03 0.58,-0.97 z m -1.91,3.56 -1,2.14 -0.25,0.61 0.92,0.39 0.25,-0.61 v 0.02 l 0.99,-2.12 z m -1.63,3.68 -0.35,0.84 -0.71,1.99 0.94,0.34 0.71,-1.98 -0.01,0.02 0.34,-0.83 z m -1.38,3.8 -0.55,1.82 -0.28,1.09 0.97,0.25 0.27,-1.09 v 0.03 l 0.55,-1.81 z m -1.07,3.88 -0.09,0.34 -0.48,2.41 -0.03,0.26 1,0.11 0.02,-0.24 v 0.04 l 0.47,-2.38 -0.01,0.03 0.09,-0.32 z m -0.71,4 -0.1,0.94 1,0.11 0.1,-0.94 z m -2.52,-0.22 2.55,6.2 3.43,-5.76 z"
       style="fill:#404040;fill-opacity:1;fill-rule:nonzero;stroke:none"
       id="path1211"
       inkscape:connector-curvature="0" /><path
       d="m 448.9,307.55 v 97.13 h 1 v -97.13 z m -2.5,96.13 3,6 3,-6 z"
       style="fill:#000000;fill-opacity:1;fill-rule:nonzero;stroke:none"
       id="path1213"
       inkscape:connector-curvature="0" /></g></svg>