<?xml version="1.0" encoding="UTF-8" standalone="no"?>
<!DOCTYPE svg PUBLIC "-//W3C//DTD SVG 1.0//EN" "http://www.w3.org/TR/2001/PR-SVG-20010719/DTD/svg10.dtd">
<svg width="13cm" height="9cm" viewBox="418 371 244 176" xmlns="http://www.w3.org/2000/svg" xmlns:xlink="http://www.w3.org/1999/xlink">
  <g>
    <line style="fill: none; fill-opacity:0; stroke-width: 2; stroke: #000000" x1="420" y1="480" x2="455.528" y2="480"/>
    <path style="fill: #000000" d="M 420 480 C 420,477.5 422.5,475 425,475 C 427.5,475 430,477.5 430,480 C 430,482.5 427.5,485 425,485 C 422.5,485 420,482.5 420,480z"/>
    <path style="fill: none; fill-opacity:0; stroke-width: 2; stroke: #000000" d="M 420 480 C 420,477.5 422.5,475 425,475 C 427.5,475 430,477.5 430,480 C 430,482.5 427.5,485 425,485 C 422.5,485 420,482.5 420,480"/>
    <polyline style="fill: none; fill-opacity:0; stroke-width: 2; stroke: #000000" points="447.764,485 457.764,480 447.764,475 "/>
  </g>
  <g>
    <line style="fill: none; fill-opacity:0; stroke-width: 2; stroke: #000000" x1="460" y1="480" x2="495.528" y2="480"/>
    <path style="fill: #000000" d="M 460 480 C 460,477.5 462.5,475 465,475 C 467.5,475 470,477.5 470,480 C 470,482.5 467.5,485 465,485 C 462.5,485 460,482.5 460,480z"/>
    <path style="fill: none; fill-opacity:0; stroke-width: 2; stroke: #000000" d="M 460 480 C 460,477.5 462.5,475 465,475 C 467.5,475 470,477.5 470,480 C 470,482.5 467.5,485 465,485 C 462.5,485 460,482.5 460,480"/>
    <polyline style="fill: none; fill-opacity:0; stroke-width: 2; stroke: #000000" points="487.764,485 497.764,480 487.764,475 "/>
  </g>
  <g>
    <line style="fill: none; fill-opacity:0; stroke-width: 2; stroke: #000000" x1="500" y1="440" x2="535.528" y2="440"/>
    <path style="fill: #000000" d="M 500 440 C 500,437.5 502.5,435 505,435 C 507.5,435 510,437.5 510,440 C 510,442.5 507.5,445 505,445 C 502.5,445 500,442.5 500,440z"/>
    <path style="fill: none; fill-opacity:0; stroke-width: 2; stroke: #000000" d="M 500 440 C 500,437.5 502.5,435 505,435 C 507.5,435 510,437.5 510,440 C 510,442.5 507.5,445 505,445 C 502.5,445 500,442.5 500,440"/>
    <polyline style="fill: none; fill-opacity:0; stroke-width: 2; stroke: #000000" points="527.764,445 537.764,440 527.764,435 "/>
  </g>
  <g>
    <line style="fill: none; fill-opacity:0; stroke-width: 2; stroke: #000000" x1="540" y1="440" x2="575.528" y2="440"/>
    <path style="fill: #000000" d="M 540 440 C 540,437.5 542.5,435 545,435 C 547.5,435 550,437.5 550,440 C 550,442.5 547.5,445 545,445 C 542.5,445 540,442.5 540,440z"/>
    <path style="fill: none; fill-opacity:0; stroke-width: 2; stroke: #000000" d="M 540 440 C 540,437.5 542.5,435 545,435 C 547.5,435 550,437.5 550,440 C 550,442.5 547.5,445 545,445 C 542.5,445 540,442.5 540,440"/>
    <polyline style="fill: none; fill-opacity:0; stroke-width: 2; stroke: #000000" points="567.764,445 577.764,440 567.764,435 "/>
  </g>
  <g>
    <line style="fill: none; fill-opacity:0; stroke-width: 2; stroke: #000000" x1="500" y1="520" x2="535.528" y2="520"/>
    <path style="fill: #000000" d="M 500 520 C 500,517.5 502.5,515 505,515 C 507.5,515 510,517.5 510,520 C 510,522.5 507.5,525 505,525 C 502.5,525 500,522.5 500,520z"/>
    <path style="fill: none; fill-opacity:0; stroke-width: 2; stroke: #000000" d="M 500 520 C 500,517.5 502.5,515 505,515 C 507.5,515 510,517.5 510,520 C 510,522.5 507.5,525 505,525 C 502.5,525 500,522.5 500,520"/>
    <polyline style="fill: none; fill-opacity:0; stroke-width: 2; stroke: #000000" points="527.764,525 537.764,520 527.764,515 "/>
  </g>
  <g>
    <line style="fill: none; fill-opacity:0; stroke-width: 2; stroke: #000000" x1="540" y1="520" x2="575.528" y2="520"/>
    <path style="fill: #000000" d="M 540 520 C 540,517.5 542.5,515 545,515 C 547.5,515 550,517.5 550,520 C 550,522.5 547.5,525 545,525 C 542.5,525 540,522.5 540,520z"/>
    <path style="fill: none; fill-opacity:0; stroke-width: 2; stroke: #000000" d="M 540 520 C 540,517.5 542.5,515 545,515 C 547.5,515 550,517.5 550,520 C 550,522.5 547.5,525 545,525 C 542.5,525 540,522.5 540,520"/>
    <polyline style="fill: none; fill-opacity:0; stroke-width: 2; stroke: #000000" points="567.764,525 577.764,520 567.764,515 "/>
  </g>
  <g>
    <line style="fill: none; fill-opacity:0; stroke-width: 2; stroke: #000000" x1="580" y1="460" x2="615.528" y2="460"/>
    <path style="fill: #000000" d="M 580 460 C 580,457.5 582.5,455 585,455 C 587.5,455 590,457.5 590,460 C 590,462.5 587.5,465 585,465 C 582.5,465 580,462.5 580,460z"/>
    <path style="fill: none; fill-opacity:0; stroke-width: 2; stroke: #000000" d="M 580 460 C 580,457.5 582.5,455 585,455 C 587.5,455 590,457.5 590,460 C 590,462.5 587.5,465 585,465 C 582.5,465 580,462.5 580,460"/>
    <polyline style="fill: none; fill-opacity:0; stroke-width: 2; stroke: #000000" points="607.764,465 617.764,460 607.764,455 "/>
  </g>
  <g>
    <line style="fill: none; fill-opacity:0; stroke-width: 2; stroke: #000000" x1="620" y1="460" x2="655.528" y2="460"/>
    <path style="fill: #000000" d="M 620 460 C 620,457.5 622.5,455 625,455 C 627.5,455 630,457.5 630,460 C 630,462.5 627.5,465 625,465 C 622.5,465 620,462.5 620,460z"/>
    <path style="fill: none; fill-opacity:0; stroke-width: 2; stroke: #000000" d="M 620 460 C 620,457.5 622.5,455 625,455 C 627.5,455 630,457.5 630,460 C 630,462.5 627.5,465 625,465 C 622.5,465 620,462.5 620,460"/>
    <polyline style="fill: none; fill-opacity:0; stroke-width: 2; stroke: #000000" points="647.764,465 657.764,460 647.764,455 "/>
  </g>
  <g>
    <line style="fill: none; fill-opacity:0; stroke-width: 2; stroke: #000000" x1="580" y1="420" x2="615.528" y2="420"/>
    <path style="fill: #000000" d="M 580 420 C 580,417.5 582.5,415 585,415 C 587.5,415 590,417.5 590,420 C 590,422.5 587.5,425 585,425 C 582.5,425 580,422.5 580,420z"/>
    <path style="fill: none; fill-opacity:0; stroke-width: 2; stroke: #000000" d="M 580 420 C 580,417.5 582.5,415 585,415 C 587.5,415 590,417.5 590,420 C 590,422.5 587.5,425 585,425 C 582.5,425 580,422.5 580,420"/>
    <polyline style="fill: none; fill-opacity:0; stroke-width: 2; stroke: #000000" points="607.764,425 617.764,420 607.764,415 "/>
  </g>
  <g>
    <line style="fill: none; fill-opacity:0; stroke-width: 2; stroke: #000000" x1="620" y1="420" x2="655.528" y2="420"/>
    <path style="fill: #000000" d="M 620 420 C 620,417.5 622.5,415 625,415 C 627.5,415 630,417.5 630,420 C 630,422.5 627.5,425 625,425 C 622.5,425 620,422.5 620,420z"/>
    <path style="fill: none; fill-opacity:0; stroke-width: 2; stroke: #000000" d="M 620 420 C 620,417.5 622.5,415 625,415 C 627.5,415 630,417.5 630,420 C 630,422.5 627.5,425 625,425 C 622.5,425 620,422.5 620,420"/>
    <polyline style="fill: none; fill-opacity:0; stroke-width: 2; stroke: #000000" points="647.764,425 657.764,420 647.764,415 "/>
  </g>
  <g>
    <line style="fill: none; fill-opacity:0; stroke-width: 2; stroke: #000000" x1="580" y1="500" x2="615.528" y2="500"/>
    <path style="fill: #000000" d="M 580 500 C 580,497.5 582.5,495 585,495 C 587.5,495 590,497.5 590,500 C 590,502.5 587.5,505 585,505 C 582.5,505 580,502.5 580,500z"/>
    <path style="fill: none; fill-opacity:0; stroke-width: 2; stroke: #000000" d="M 580 500 C 580,497.5 582.5,495 585,495 C 587.5,495 590,497.5 590,500 C 590,502.5 587.5,505 585,505 C 582.5,505 580,502.5 580,500"/>
    <polyline style="fill: none; fill-opacity:0; stroke-width: 2; stroke: #000000" points="607.764,505 617.764,500 607.764,495 "/>
  </g>
  <g>
    <line style="fill: none; fill-opacity:0; stroke-width: 2; stroke: #000000" x1="620" y1="500" x2="655.528" y2="500"/>
    <path style="fill: #000000" d="M 620 500 C 620,497.5 622.5,495 625,495 C 627.5,495 630,497.5 630,500 C 630,502.5 627.5,505 625,505 C 622.5,505 620,502.5 620,500z"/>
    <path style="fill: none; fill-opacity:0; stroke-width: 2; stroke: #000000" d="M 620 500 C 620,497.5 622.5,495 625,495 C 627.5,495 630,497.5 630,500 C 630,502.5 627.5,505 625,505 C 622.5,505 620,502.5 620,500"/>
    <polyline style="fill: none; fill-opacity:0; stroke-width: 2; stroke: #000000" points="647.764,505 657.764,500 647.764,495 "/>
  </g>
  <g>
    <line style="fill: none; fill-opacity:0; stroke-width: 2; stroke: #000000" x1="580" y1="540" x2="615.528" y2="540"/>
    <path style="fill: #000000" d="M 580 540 C 580,537.5 582.5,535 585,535 C 587.5,535 590,537.5 590,540 C 590,542.5 587.5,545 585,545 C 582.5,545 580,542.5 580,540z"/>
    <path style="fill: none; fill-opacity:0; stroke-width: 2; stroke: #000000" d="M 580 540 C 580,537.5 582.5,535 585,535 C 587.5,535 590,537.5 590,540 C 590,542.5 587.5,545 585,545 C 582.5,545 580,542.5 580,540"/>
    <polyline style="fill: none; fill-opacity:0; stroke-width: 2; stroke: #000000" points="607.764,545 617.764,540 607.764,535 "/>
  </g>
  <g>
    <line style="fill: none; fill-opacity:0; stroke-width: 2; stroke: #000000" x1="620" y1="540" x2="655.528" y2="540"/>
    <path style="fill: #000000" d="M 620 540 C 620,537.5 622.5,535 625,535 C 627.5,535 630,537.5 630,540 C 630,542.5 627.5,545 625,545 C 622.5,545 620,542.5 620,540z"/>
    <path style="fill: none; fill-opacity:0; stroke-width: 2; stroke: #000000" d="M 620 540 C 620,537.5 622.5,535 625,535 C 627.5,535 630,537.5 630,540 C 630,542.5 627.5,545 625,545 C 622.5,545 620,542.5 620,540"/>
    <polyline style="fill: none; fill-opacity:0; stroke-width: 2; stroke: #000000" points="647.764,545 657.764,540 647.764,535 "/>
  </g>
  <line style="fill: none; fill-opacity:0; stroke-width: 2; stroke: #000000" x1="500" y1="480" x2="500" y2="440"/>
  <line style="fill: none; fill-opacity:0; stroke-width: 2; stroke: #000000" x1="500" y1="520" x2="500" y2="480"/>
  <line style="fill: none; fill-opacity:0; stroke-width: 2; stroke: #000000" x1="580" y1="540" x2="580" y2="500"/>
  <line style="fill: none; fill-opacity:0; stroke-width: 2; stroke: #000000" x1="580" y1="460" x2="580" y2="440"/>
  <line style="fill: none; fill-opacity:0; stroke-width: 2; stroke: #000000" x1="580" y1="440" x2="580" y2="420"/>
  <text font-size="12.8" style="fill: #000000;text-anchor:start;font-family:sans-serif;font-style:normal;font-weight:normal" x="424" y="472">
    <tspan x="424" y="472">s0,t0</tspan>
  </text>
  <text font-size="12.8" style="fill: #000000;text-anchor:start;font-family:sans-serif;font-style:normal;font-weight:normal" x="504" y="432">
    <tspan x="504" y="432">s1,t2</tspan>
  </text>
  <text font-size="12.8" style="fill: #000000;text-anchor:start;font-family:sans-serif;font-style:normal;font-weight:normal" x="504" y="512">
    <tspan x="504" y="512">s2,t2</tspan>
  </text>
  <text font-size="12.8" style="fill: #ff0000;text-anchor:start;font-family:sans-serif;font-style:normal;font-weight:normal" x="584" y="412">
    <tspan x="584" y="412">s3,t4</tspan>
  </text>
  <text font-size="12.8" style="fill: #000000;text-anchor:start;font-family:sans-serif;font-style:normal;font-weight:normal" x="584" y="452">
    <tspan x="584" y="452">s4,t4</tspan>
  </text>
  <text font-size="12.8" style="fill: #000000;text-anchor:start;font-family:sans-serif;font-style:normal;font-weight:normal" x="584" y="492">
    <tspan x="584" y="492">s5,t4</tspan>
  </text>
  <text font-size="12.8" style="fill: #000000;text-anchor:start;font-family:sans-serif;font-style:normal;font-weight:normal" x="584" y="532">
    <tspan x="584" y="532">s6,t4</tspan>
  </text>
  <g>
    <line style="fill: none; fill-opacity:0; stroke-width: 2; stroke: #ff0000" x1="460" y1="480" x2="495.528" y2="480"/>
    <path style="fill: #ff0000" d="M 460 480 C 460,477.5 462.5,475 465,475 C 467.5,475 470,477.5 470,480 C 470,482.5 467.5,485 465,485 C 462.5,485 460,482.5 460,480z"/>
    <path style="fill: none; fill-opacity:0; stroke-width: 2; stroke: #ff0000" d="M 460 480 C 460,477.5 462.5,475 465,475 C 467.5,475 470,477.5 470,480 C 470,482.5 467.5,485 465,485 C 462.5,485 460,482.5 460,480"/>
    <polyline style="fill: none; fill-opacity:0; stroke-width: 2; stroke: #ff0000" points="487.764,485 497.764,480 487.764,475 "/>
  </g>
  <g>
    <line style="fill: none; fill-opacity:0; stroke-width: 2; stroke: #ff0000" x1="500" y1="440" x2="535.528" y2="440"/>
    <path style="fill: #ff0000" d="M 500 440 C 500,437.5 502.5,435 505,435 C 507.5,435 510,437.5 510,440 C 510,442.5 507.5,445 505,445 C 502.5,445 500,442.5 500,440z"/>
    <path style="fill: none; fill-opacity:0; stroke-width: 2; stroke: #ff0000" d="M 500 440 C 500,437.5 502.5,435 505,435 C 507.5,435 510,437.5 510,440 C 510,442.5 507.5,445 505,445 C 502.5,445 500,442.5 500,440"/>
    <polyline style="fill: none; fill-opacity:0; stroke-width: 2; stroke: #ff0000" points="527.764,445 537.764,440 527.764,435 "/>
  </g>
  <g>
    <line style="fill: none; fill-opacity:0; stroke-width: 2; stroke: #ff0000" x1="540" y1="440" x2="575.528" y2="440"/>
    <path style="fill: #ff0000" d="M 540 440 C 540,437.5 542.5,435 545,435 C 547.5,435 550,437.5 550,440 C 550,442.5 547.5,445 545,445 C 542.5,445 540,442.5 540,440z"/>
    <path style="fill: none; fill-opacity:0; stroke-width: 2; stroke: #ff0000" d="M 540 440 C 540,437.5 542.5,435 545,435 C 547.5,435 550,437.5 550,440 C 550,442.5 547.5,445 545,445 C 542.5,445 540,442.5 540,440"/>
    <polyline style="fill: none; fill-opacity:0; stroke-width: 2; stroke: #ff0000" points="567.764,445 577.764,440 567.764,435 "/>
  </g>
  <g>
    <line style="fill: none; fill-opacity:0; stroke-width: 2; stroke: #ff0000" x1="580" y1="420" x2="615.528" y2="420"/>
    <path style="fill: #ff0000" d="M 580 420 C 580,417.5 582.5,415 585,415 C 587.5,415 590,417.5 590,420 C 590,422.5 587.5,425 585,425 C 582.5,425 580,422.5 580,420z"/>
    <path style="fill: none; fill-opacity:0; stroke-width: 2; stroke: #ff0000" d="M 580 420 C 580,417.5 582.5,415 585,415 C 587.5,415 590,417.5 590,420 C 590,422.5 587.5,425 585,425 C 582.5,425 580,422.5 580,420"/>
    <polyline style="fill: none; fill-opacity:0; stroke-width: 2; stroke: #ff0000" points="607.764,425 617.764,420 607.764,415 "/>
  </g>
  <line style="fill: none; fill-opacity:0; stroke-width: 2; stroke: #ff0000" x1="500" y1="480" x2="500" y2="440"/>
  <line style="fill: none; fill-opacity:0; stroke-width: 2; stroke: #ff0000" x1="580" y1="440" x2="580" y2="420"/>
  <text font-size="12.8" style="fill: #ff0000;text-anchor:start;font-family:sans-serif;font-style:normal;font-weight:normal" x="424" y="384">
    <tspan x="424" y="384">Constraint with -1:-1:-3 time delays</tspan>
    <tspan x="424" y="400">generated at (s3,t4)</tspan>
  </text>
</svg>
