<?xml version="1.0" encoding="UTF-8" standalone="no"?>
<!DOCTYPE svg PUBLIC "-//W3C//DTD SVG 1.0//EN" "http://www.w3.org/TR/2001/PR-SVG-20010719/DTD/svg10.dtd">
<svg width="13cm" height="7cm" viewBox="381 717 244 127" xmlns="http://www.w3.org/2000/svg" xmlns:xlink="http://www.w3.org/1999/xlink">
  <g>
    <line style="fill: none; fill-opacity:0; stroke-width: 2; stroke: #000000" x1="383.014" y1="757.414" x2="418.542" y2="757.414"/>
    <path style="fill: #000000" d="M 383.014 757.414 C 383.014,754.914 385.514,752.414 388.014,752.414 C 390.514,752.414 393.014,754.914 393.014,757.414 C 393.014,759.914 390.514,762.414 388.014,762.414 C 385.514,762.414 383.014,759.914 383.014,757.414z"/>
    <path style="fill: none; fill-opacity:0; stroke-width: 2; stroke: #000000" d="M 383.014 757.414 C 383.014,754.914 385.514,752.414 388.014,752.414 C 390.514,752.414 393.014,754.914 393.014,757.414 C 393.014,759.914 390.514,762.414 388.014,762.414 C 385.514,762.414 383.014,759.914 383.014,757.414"/>
    <polyline style="fill: none; fill-opacity:0; stroke-width: 2; stroke: #000000" points="410.778,762.414 420.778,757.414 410.778,752.414 "/>
  </g>
  <g>
    <line style="fill: none; fill-opacity:0; stroke-width: 2; stroke: #000000" x1="423.014" y1="797.414" x2="458.542" y2="797.414"/>
    <path style="fill: #000000" d="M 423.014 797.414 C 423.014,794.914 425.514,792.414 428.014,792.414 C 430.514,792.414 433.014,794.914 433.014,797.414 C 433.014,799.914 430.514,802.414 428.014,802.414 C 425.514,802.414 423.014,799.914 423.014,797.414z"/>
    <path style="fill: none; fill-opacity:0; stroke-width: 2; stroke: #000000" d="M 423.014 797.414 C 423.014,794.914 425.514,792.414 428.014,792.414 C 430.514,792.414 433.014,794.914 433.014,797.414 C 433.014,799.914 430.514,802.414 428.014,802.414 C 425.514,802.414 423.014,799.914 423.014,797.414"/>
    <polyline style="fill: none; fill-opacity:0; stroke-width: 2; stroke: #000000" points="450.778,802.414 460.778,797.414 450.778,792.414 "/>
  </g>
  <g>
    <line style="fill: none; fill-opacity:0; stroke-width: 2; stroke: #000000" x1="423" y1="737" x2="498.528" y2="737"/>
    <path style="fill: #000000" d="M 423 737 C 423,734.5 425.5,732 428,732 C 430.5,732 433,734.5 433,737 C 433,739.5 430.5,742 428,742 C 425.5,742 423,739.5 423,737z"/>
    <path style="fill: none; fill-opacity:0; stroke-width: 2; stroke: #000000" d="M 423 737 C 423,734.5 425.5,732 428,732 C 430.5,732 433,734.5 433,737 C 433,739.5 430.5,742 428,742 C 425.5,742 423,739.5 423,737"/>
    <polyline style="fill: none; fill-opacity:0; stroke-width: 2; stroke: #000000" points="490.764,742 500.764,737 490.764,732 "/>
  </g>
  <g>
    <line style="fill: none; fill-opacity:0; stroke-width: 2; stroke: #000000" x1="463.014" y1="817.414" x2="538.542" y2="817.414"/>
    <path style="fill: #000000" d="M 463.014 817.414 C 463.014,814.914 465.514,812.414 468.014,812.414 C 470.514,812.414 473.014,814.914 473.014,817.414 C 473.014,819.914 470.514,822.414 468.014,822.414 C 465.514,822.414 463.014,819.914 463.014,817.414z"/>
    <path style="fill: none; fill-opacity:0; stroke-width: 2; stroke: #000000" d="M 463.014 817.414 C 463.014,814.914 465.514,812.414 468.014,812.414 C 470.514,812.414 473.014,814.914 473.014,817.414 C 473.014,819.914 470.514,822.414 468.014,822.414 C 465.514,822.414 463.014,819.914 463.014,817.414"/>
    <polyline style="fill: none; fill-opacity:0; stroke-width: 2; stroke: #000000" points="530.778,822.414 540.778,817.414 530.778,812.414 "/>
  </g>
  <g>
    <line style="fill: none; fill-opacity:0; stroke-width: 2; stroke: #000000" x1="463.014" y1="777.414" x2="498.542" y2="777.414"/>
    <path style="fill: #000000" d="M 463.014 777.414 C 463.014,774.914 465.514,772.414 468.014,772.414 C 470.514,772.414 473.014,774.914 473.014,777.414 C 473.014,779.914 470.514,782.414 468.014,782.414 C 465.514,782.414 463.014,779.914 463.014,777.414z"/>
    <path style="fill: none; fill-opacity:0; stroke-width: 2; stroke: #000000" d="M 463.014 777.414 C 463.014,774.914 465.514,772.414 468.014,772.414 C 470.514,772.414 473.014,774.914 473.014,777.414 C 473.014,779.914 470.514,782.414 468.014,782.414 C 465.514,782.414 463.014,779.914 463.014,777.414"/>
    <polyline style="fill: none; fill-opacity:0; stroke-width: 2; stroke: #000000" points="490.778,782.414 500.778,777.414 490.778,772.414 "/>
  </g>
  <g>
    <line style="fill: none; fill-opacity:0; stroke-width: 2; stroke: #000000" x1="543.014" y1="837.414" x2="578.542" y2="837.414"/>
    <path style="fill: #000000" d="M 543.014 837.414 C 543.014,834.914 545.514,832.414 548.014,832.414 C 550.514,832.414 553.014,834.914 553.014,837.414 C 553.014,839.914 550.514,842.414 548.014,842.414 C 545.514,842.414 543.014,839.914 543.014,837.414z"/>
    <path style="fill: none; fill-opacity:0; stroke-width: 2; stroke: #000000" d="M 543.014 837.414 C 543.014,834.914 545.514,832.414 548.014,832.414 C 550.514,832.414 553.014,834.914 553.014,837.414 C 553.014,839.914 550.514,842.414 548.014,842.414 C 545.514,842.414 543.014,839.914 543.014,837.414"/>
    <polyline style="fill: none; fill-opacity:0; stroke-width: 2; stroke: #000000" points="570.778,842.414 580.778,837.414 570.778,832.414 "/>
  </g>
  <g>
    <line style="fill: none; fill-opacity:0; stroke-width: 2; stroke: #000000" x1="543.014" y1="797.414" x2="578.542" y2="797.414"/>
    <path style="fill: #000000" d="M 543.014 797.414 C 543.014,794.914 545.514,792.414 548.014,792.414 C 550.514,792.414 553.014,794.914 553.014,797.414 C 553.014,799.914 550.514,802.414 548.014,802.414 C 545.514,802.414 543.014,799.914 543.014,797.414z"/>
    <path style="fill: none; fill-opacity:0; stroke-width: 2; stroke: #000000" d="M 543.014 797.414 C 543.014,794.914 545.514,792.414 548.014,792.414 C 550.514,792.414 553.014,794.914 553.014,797.414 C 553.014,799.914 550.514,802.414 548.014,802.414 C 545.514,802.414 543.014,799.914 543.014,797.414"/>
    <polyline style="fill: none; fill-opacity:0; stroke-width: 2; stroke: #000000" points="570.778,802.414 580.778,797.414 570.778,792.414 "/>
  </g>
  <g>
    <line style="fill: none; fill-opacity:0; stroke-width: 2; stroke: #000000" x1="583.014" y1="737.414" x2="618.542" y2="737.414"/>
    <path style="fill: #000000" d="M 583.014 737.414 C 583.014,734.914 585.514,732.414 588.014,732.414 C 590.514,732.414 593.014,734.914 593.014,737.414 C 593.014,739.914 590.514,742.414 588.014,742.414 C 585.514,742.414 583.014,739.914 583.014,737.414z"/>
    <path style="fill: none; fill-opacity:0; stroke-width: 2; stroke: #000000" d="M 583.014 737.414 C 583.014,734.914 585.514,732.414 588.014,732.414 C 590.514,732.414 593.014,734.914 593.014,737.414 C 593.014,739.914 590.514,742.414 588.014,742.414 C 585.514,742.414 583.014,739.914 583.014,737.414"/>
    <polyline style="fill: none; fill-opacity:0; stroke-width: 2; stroke: #000000" points="610.778,742.414 620.778,737.414 610.778,732.414 "/>
  </g>
  <line style="fill: none; fill-opacity:0; stroke-width: 2; stroke: #000000" x1="423.014" y1="737.414" x2="423.014" y2="797.414"/>
  <line style="fill: none; fill-opacity:0; stroke-width: 2; stroke: #000000" x1="463.014" y1="777.414" x2="463.014" y2="817.414"/>
  <line style="fill: none; fill-opacity:0; stroke-width: 2; stroke: #000000" x1="503.014" y1="737.414" x2="503.014" y2="777.414"/>
  <line style="fill: none; fill-opacity:0; stroke-width: 2; stroke: #000000" x1="543.014" y1="797.414" x2="543.014" y2="837.414"/>
  <line style="fill: none; fill-opacity:0; stroke-width: 2; stroke: #000000" x1="583.014" y1="737.414" x2="583.014" y2="837.414"/>
  <text font-size="12.8" style="fill: #000000;text-anchor:start;font-family:sans-serif;font-style:normal;font-weight:normal" x="388" y="750">
    <tspan x="388" y="750">s0</tspan>
  </text>
  <text font-size="12.8" style="fill: #000000;text-anchor:start;font-family:sans-serif;font-style:normal;font-weight:normal" x="428" y="730">
    <tspan x="428" y="730">s1</tspan>
  </text>
  <text font-size="12.8" style="fill: #000000;text-anchor:start;font-family:sans-serif;font-style:normal;font-weight:normal" x="428" y="790">
    <tspan x="428" y="790">s2</tspan>
  </text>
  <text font-size="12.8" style="fill: #000000;text-anchor:start;font-family:sans-serif;font-style:normal;font-weight:normal" x="468" y="770">
    <tspan x="468" y="770">s3</tspan>
  </text>
  <text font-size="12.8" style="fill: #000000;text-anchor:start;font-family:sans-serif;font-style:normal;font-weight:normal" x="468" y="810">
    <tspan x="468" y="810">s4</tspan>
  </text>
  <text font-size="12.8" style="fill: #000000;text-anchor:start;font-family:sans-serif;font-style:normal;font-weight:normal" x="508" y="750">
    <tspan x="508" y="750">s5</tspan>
  </text>
  <text font-size="12.8" style="fill: #000000;text-anchor:start;font-family:sans-serif;font-style:normal;font-weight:normal" x="548" y="790">
    <tspan x="548" y="790">s6</tspan>
  </text>
  <text font-size="12.8" style="fill: #000000;text-anchor:start;font-family:sans-serif;font-style:normal;font-weight:normal" x="548" y="830">
    <tspan x="548" y="830">s7</tspan>
  </text>
  <text font-size="12.8" style="fill: #000000;text-anchor:start;font-family:sans-serif;font-style:normal;font-weight:normal" x="588" y="730">
    <tspan x="588" y="730">s8</tspan>
  </text>
  <g>
    <line style="fill: none; fill-opacity:0; stroke-width: 2; stroke: #000000" x1="383.022" y1="757.376" x2="418.55" y2="757.376"/>
    <path style="fill: #000000" d="M 383.022 757.376 C 383.022,754.876 385.522,752.376 388.022,752.376 C 390.522,752.376 393.022,754.876 393.022,757.376 C 393.022,759.876 390.522,762.376 388.022,762.376 C 385.522,762.376 383.022,759.876 383.022,757.376z"/>
    <path style="fill: none; fill-opacity:0; stroke-width: 2; stroke: #000000" d="M 383.022 757.376 C 383.022,754.876 385.522,752.376 388.022,752.376 C 390.522,752.376 393.022,754.876 393.022,757.376 C 393.022,759.876 390.522,762.376 388.022,762.376 C 385.522,762.376 383.022,759.876 383.022,757.376"/>
    <polyline style="fill: none; fill-opacity:0; stroke-width: 2; stroke: #000000" points="410.786,762.376 420.786,757.376 410.786,752.376 "/>
  </g>
  <g>
    <line style="fill: none; fill-opacity:0; stroke-width: 2; stroke: #000000" x1="423.008" y1="736.962" x2="498.536" y2="736.962"/>
    <path style="fill: #000000" d="M 423.008 736.962 C 423.008,734.462 425.508,731.962 428.008,731.962 C 430.508,731.962 433.008,734.462 433.008,736.962 C 433.008,739.462 430.508,741.962 428.008,741.962 C 425.508,741.962 423.008,739.462 423.008,736.962z"/>
    <path style="fill: none; fill-opacity:0; stroke-width: 2; stroke: #000000" d="M 423.008 736.962 C 423.008,734.462 425.508,731.962 428.008,731.962 C 430.508,731.962 433.008,734.462 433.008,736.962 C 433.008,739.462 430.508,741.962 428.008,741.962 C 425.508,741.962 423.008,739.462 423.008,736.962"/>
    <polyline style="fill: none; fill-opacity:0; stroke-width: 2; stroke: #000000" points="490.772,741.962 500.772,736.962 490.772,731.962 "/>
  </g>
  <g>
    <line style="fill: none; fill-opacity:0; stroke-width: 2; stroke: #000000" x1="503" y1="757" x2="577.536" y2="756.964"/>
    <path style="fill: #000000" d="M 503 757 C 502.999,754.5 505.498,751.999 507.998,751.998 C 510.498,751.996 512.999,754.495 513,756.995 C 513.001,759.495 510.502,761.996 508.002,761.998 C 505.502,761.999 503.001,759.5 503,757z"/>
    <path style="fill: none; fill-opacity:0; stroke-width: 2; stroke: #000000" d="M 503 757 C 502.999,754.5 505.498,751.999 507.998,751.998 C 510.498,751.996 512.999,754.495 513,756.995 C 513.001,759.495 510.502,761.996 508.002,761.998 C 505.502,761.999 503.001,759.5 503,757"/>
    <polyline style="fill: none; fill-opacity:0; stroke-width: 2; stroke: #000000" points="569.774,761.968 579.772,756.963 569.77,751.968 "/>
  </g>
  <g>
    <line style="fill: none; fill-opacity:0; stroke-width: 2; stroke: #000000" x1="583.022" y1="737.376" x2="618.55" y2="737.376"/>
    <path style="fill: #000000" d="M 583.022 737.376 C 583.022,734.876 585.522,732.376 588.022,732.376 C 590.522,732.376 593.022,734.876 593.022,737.376 C 593.022,739.876 590.522,742.376 588.022,742.376 C 585.522,742.376 583.022,739.876 583.022,737.376z"/>
    <path style="fill: none; fill-opacity:0; stroke-width: 2; stroke: #000000" d="M 583.022 737.376 C 583.022,734.876 585.522,732.376 588.022,732.376 C 590.522,732.376 593.022,734.876 593.022,737.376 C 593.022,739.876 590.522,742.376 588.022,742.376 C 585.522,742.376 583.022,739.876 583.022,737.376"/>
    <polyline style="fill: none; fill-opacity:0; stroke-width: 2; stroke: #000000" points="610.786,742.376 620.786,737.376 610.786,732.376 "/>
  </g>
  <g>
    <line style="fill: none; fill-opacity:0; stroke-width: 2; stroke: #ff0000" x1="382.95" y1="757.314" x2="418.478" y2="757.314"/>
    <path style="fill: #ff0000" d="M 382.95 757.314 C 382.95,754.814 385.45,752.314 387.95,752.314 C 390.45,752.314 392.95,754.814 392.95,757.314 C 392.95,759.814 390.45,762.314 387.95,762.314 C 385.45,762.314 382.95,759.814 382.95,757.314z"/>
    <path style="fill: none; fill-opacity:0; stroke-width: 2; stroke: #ff0000" d="M 382.95 757.314 C 382.95,754.814 385.45,752.314 387.95,752.314 C 390.45,752.314 392.95,754.814 392.95,757.314 C 392.95,759.814 390.45,762.314 387.95,762.314 C 385.45,762.314 382.95,759.814 382.95,757.314"/>
    <polyline style="fill: none; fill-opacity:0; stroke-width: 2; stroke: #ff0000" points="410.714,762.314 420.714,757.314 410.714,752.314 "/>
  </g>
  <g>
    <line style="fill: none; fill-opacity:0; stroke-width: 2; stroke: #ff0000" x1="422.936" y1="736.9" x2="498.464" y2="736.9"/>
    <path style="fill: #ff0000" d="M 422.936 736.9 C 422.936,734.4 425.436,731.9 427.936,731.9 C 430.436,731.9 432.936,734.4 432.936,736.9 C 432.936,739.4 430.436,741.9 427.936,741.9 C 425.436,741.9 422.936,739.4 422.936,736.9z"/>
    <path style="fill: none; fill-opacity:0; stroke-width: 2; stroke: #ff0000" d="M 422.936 736.9 C 422.936,734.4 425.436,731.9 427.936,731.9 C 430.436,731.9 432.936,734.4 432.936,736.9 C 432.936,739.4 430.436,741.9 427.936,741.9 C 425.436,741.9 422.936,739.4 422.936,736.9"/>
    <polyline style="fill: none; fill-opacity:0; stroke-width: 2; stroke: #ff0000" points="490.7,741.9 500.7,736.9 490.7,731.9 "/>
  </g>
  <g>
    <line style="fill: none; fill-opacity:0; stroke-width: 2; stroke: #ff0000" x1="502.928" y1="756.936" x2="577.464" y2="756.902"/>
    <path style="fill: #ff0000" d="M 502.928 756.936 C 502.927,754.436 505.426,751.935 507.926,751.934 C 510.426,751.933 512.927,754.431 512.928,756.931 C 512.929,759.431 510.43,761.933 507.93,761.934 C 505.43,761.935 502.929,759.436 502.928,756.936z"/>
    <path style="fill: none; fill-opacity:0; stroke-width: 2; stroke: #ff0000" d="M 502.928 756.936 C 502.927,754.436 505.426,751.935 507.926,751.934 C 510.426,751.933 512.927,754.431 512.928,756.931 C 512.929,759.431 510.43,761.933 507.93,761.934 C 505.43,761.935 502.929,759.436 502.928,756.936"/>
    <polyline style="fill: none; fill-opacity:0; stroke-width: 2; stroke: #ff0000" points="569.702,761.906 579.7,756.901 569.698,751.906 "/>
  </g>
  <g>
    <line style="fill: none; fill-opacity:0; stroke-width: 2; stroke: #ff0000" x1="582.95" y1="737.314" x2="618.478" y2="737.314"/>
    <path style="fill: #ff0000" d="M 582.95 737.314 C 582.95,734.814 585.45,732.314 587.95,732.314 C 590.45,732.314 592.95,734.814 592.95,737.314 C 592.95,739.814 590.45,742.314 587.95,742.314 C 585.45,742.314 582.95,739.814 582.95,737.314z"/>
    <path style="fill: none; fill-opacity:0; stroke-width: 2; stroke: #ff0000" d="M 582.95 737.314 C 582.95,734.814 585.45,732.314 587.95,732.314 C 590.45,732.314 592.95,734.814 592.95,737.314 C 592.95,739.814 590.45,742.314 587.95,742.314 C 585.45,742.314 582.95,739.814 582.95,737.314"/>
    <polyline style="fill: none; fill-opacity:0; stroke-width: 2; stroke: #ff0000" points="610.714,742.314 620.714,737.314 610.714,732.314 "/>
  </g>
  <g>
    <line style="fill: none; fill-opacity:0; stroke-width: 2; stroke: #0000ff" x1="423.068" y1="797.336" x2="458.596" y2="797.336"/>
    <path style="fill: #0000ff" d="M 423.068 797.336 C 423.068,794.836 425.568,792.336 428.068,792.336 C 430.568,792.336 433.068,794.836 433.068,797.336 C 433.068,799.836 430.568,802.336 428.068,802.336 C 425.568,802.336 423.068,799.836 423.068,797.336z"/>
    <path style="fill: none; fill-opacity:0; stroke-width: 2; stroke: #0000ff" d="M 423.068 797.336 C 423.068,794.836 425.568,792.336 428.068,792.336 C 430.568,792.336 433.068,794.836 433.068,797.336 C 433.068,799.836 430.568,802.336 428.068,802.336 C 425.568,802.336 423.068,799.836 423.068,797.336"/>
    <polyline style="fill: none; fill-opacity:0; stroke-width: 2; stroke: #0000ff" points="450.832,802.336 460.832,797.336 450.832,792.336 "/>
  </g>
  <g>
    <line style="fill: none; fill-opacity:0; stroke-width: 2; stroke: #0000ff" x1="463.068" y1="817.336" x2="538.596" y2="817.336"/>
    <path style="fill: #0000ff" d="M 463.068 817.336 C 463.068,814.836 465.568,812.336 468.068,812.336 C 470.568,812.336 473.068,814.836 473.068,817.336 C 473.068,819.836 470.568,822.336 468.068,822.336 C 465.568,822.336 463.068,819.836 463.068,817.336z"/>
    <path style="fill: none; fill-opacity:0; stroke-width: 2; stroke: #0000ff" d="M 463.068 817.336 C 463.068,814.836 465.568,812.336 468.068,812.336 C 470.568,812.336 473.068,814.836 473.068,817.336 C 473.068,819.836 470.568,822.336 468.068,822.336 C 465.568,822.336 463.068,819.836 463.068,817.336"/>
    <polyline style="fill: none; fill-opacity:0; stroke-width: 2; stroke: #0000ff" points="530.832,822.336 540.832,817.336 530.832,812.336 "/>
  </g>
  <g>
    <line style="fill: none; fill-opacity:0; stroke-width: 2; stroke: #0000ff" x1="543.068" y1="837.336" x2="578.596" y2="837.336"/>
    <path style="fill: #0000ff" d="M 543.068 837.336 C 543.068,834.836 545.568,832.336 548.068,832.336 C 550.568,832.336 553.068,834.836 553.068,837.336 C 553.068,839.836 550.568,842.336 548.068,842.336 C 545.568,842.336 543.068,839.836 543.068,837.336z"/>
    <path style="fill: none; fill-opacity:0; stroke-width: 2; stroke: #0000ff" d="M 543.068 837.336 C 543.068,834.836 545.568,832.336 548.068,832.336 C 550.568,832.336 553.068,834.836 553.068,837.336 C 553.068,839.836 550.568,842.336 548.068,842.336 C 545.568,842.336 543.068,839.836 543.068,837.336"/>
    <polyline style="fill: none; fill-opacity:0; stroke-width: 2; stroke: #0000ff" points="570.832,842.336 580.832,837.336 570.832,832.336 "/>
  </g>
</svg>
